<mxfile host="app.diagrams.net" agent="Mozilla/5.0 (X11; Linux x86_64) AppleWebKit/537.36 (KHTML, like Gecko) Chrome/137.0.0.0 Safari/537.36" version="28.0.6">
  <diagram name="PÃ¡gina-1" id="t_9YYfcG0iRNYuTQ5na6">
    <mxGraphModel dx="1765" dy="1043" grid="1" gridSize="10" guides="1" tooltips="1" connect="1" arrows="1" fold="1" page="1" pageScale="1" pageWidth="827" pageHeight="1169" math="0" shadow="0">
      <root>
        <mxCell id="0" />
        <mxCell id="1" parent="0" />
        <mxCell id="_3fMvBpomGZ4TNmyy_1x-1" value="CITIES" style="shape=table;startSize=30;container=1;collapsible=1;childLayout=tableLayout;fixedRows=1;rowLines=0;fontStyle=1;align=center;resizeLast=1;html=1;fillColor=#07747B;strokeColor=#432D57;fontColor=#ffffff;rounded=0;fontFamily=Poppins;fontSource=https%3A%2F%2Ffonts.googleapis.com%2Fcss%3Ffamily%3DPoppins;fontSize=14;" vertex="1" parent="1">
          <mxGeometry x="900" y="889" width="310" height="90" as="geometry" />
        </mxCell>
        <mxCell id="_3fMvBpomGZ4TNmyy_1x-2" value="" style="shape=tableRow;horizontal=0;startSize=0;swimlaneHead=0;swimlaneBody=0;fillColor=#eeeeee;collapsible=0;dropTarget=0;points=[[0,0.5],[1,0.5]];portConstraint=eastwest;top=0;left=0;right=0;bottom=1;strokeColor=#36393d;rounded=0;fontFamily=Poppins;fontSource=https%3A%2F%2Ffonts.googleapis.com%2Fcss%3Ffamily%3DPoppins;" vertex="1" parent="_3fMvBpomGZ4TNmyy_1x-1">
          <mxGeometry y="30" width="310" height="30" as="geometry" />
        </mxCell>
        <mxCell id="_3fMvBpomGZ4TNmyy_1x-3" value="PK" style="shape=partialRectangle;connectable=0;fillColor=#eeeeee;top=0;left=0;bottom=0;right=0;fontStyle=1;overflow=hidden;whiteSpace=wrap;html=1;strokeColor=#36393d;rounded=0;fontFamily=Poppins;fontSource=https%3A%2F%2Ffonts.googleapis.com%2Fcss%3Ffamily%3DPoppins;" vertex="1" parent="_3fMvBpomGZ4TNmyy_1x-2">
          <mxGeometry width="30" height="30" as="geometry">
            <mxRectangle width="30" height="30" as="alternateBounds" />
          </mxGeometry>
        </mxCell>
        <mxCell id="_3fMvBpomGZ4TNmyy_1x-4" value="ID INT AUTO_INCREMENT NOT NULL" style="shape=partialRectangle;connectable=0;fillColor=#eeeeee;top=0;left=0;bottom=0;right=0;align=left;spacingLeft=6;fontStyle=5;overflow=hidden;whiteSpace=wrap;html=1;strokeColor=#36393d;rounded=0;fontFamily=Poppins;fontSource=https%3A%2F%2Ffonts.googleapis.com%2Fcss%3Ffamily%3DPoppins;" vertex="1" parent="_3fMvBpomGZ4TNmyy_1x-2">
          <mxGeometry x="30" width="280" height="30" as="geometry">
            <mxRectangle width="280" height="30" as="alternateBounds" />
          </mxGeometry>
        </mxCell>
        <mxCell id="_3fMvBpomGZ4TNmyy_1x-5" value="" style="shape=tableRow;horizontal=0;startSize=0;swimlaneHead=0;swimlaneBody=0;fillColor=#eeeeee;collapsible=0;dropTarget=0;points=[[0,0.5],[1,0.5]];portConstraint=eastwest;top=0;left=0;right=0;bottom=0;strokeColor=#36393d;rounded=0;fontFamily=Poppins;fontSource=https%3A%2F%2Ffonts.googleapis.com%2Fcss%3Ffamily%3DPoppins;" vertex="1" parent="_3fMvBpomGZ4TNmyy_1x-1">
          <mxGeometry y="60" width="310" height="30" as="geometry" />
        </mxCell>
        <mxCell id="_3fMvBpomGZ4TNmyy_1x-6" value="" style="shape=partialRectangle;connectable=0;fillColor=#eeeeee;top=0;left=0;bottom=0;right=0;editable=1;overflow=hidden;whiteSpace=wrap;html=1;strokeColor=#36393d;rounded=0;fontFamily=Poppins;fontSource=https%3A%2F%2Ffonts.googleapis.com%2Fcss%3Ffamily%3DPoppins;" vertex="1" parent="_3fMvBpomGZ4TNmyy_1x-5">
          <mxGeometry width="30" height="30" as="geometry">
            <mxRectangle width="30" height="30" as="alternateBounds" />
          </mxGeometry>
        </mxCell>
        <mxCell id="_3fMvBpomGZ4TNmyy_1x-7" value="NAME_CITY VARCHAR(30) NOT NULL UNIQUE" style="shape=partialRectangle;connectable=0;fillColor=#eeeeee;top=0;left=0;bottom=0;right=0;align=left;spacingLeft=6;overflow=hidden;whiteSpace=wrap;html=1;strokeColor=#36393d;rounded=0;fontFamily=Poppins;fontSource=https%3A%2F%2Ffonts.googleapis.com%2Fcss%3Ffamily%3DPoppins;" vertex="1" parent="_3fMvBpomGZ4TNmyy_1x-5">
          <mxGeometry x="30" width="280" height="30" as="geometry">
            <mxRectangle width="280" height="30" as="alternateBounds" />
          </mxGeometry>
        </mxCell>
        <mxCell id="_3fMvBpomGZ4TNmyy_1x-8" value="PROJECTS" style="shape=table;startSize=30;container=1;collapsible=1;childLayout=tableLayout;fixedRows=1;rowLines=0;fontStyle=1;align=center;resizeLast=1;html=1;fillColor=#07747B;strokeColor=#432D57;fontColor=#ffffff;rounded=0;fontFamily=Poppins;fontSource=https%3A%2F%2Ffonts.googleapis.com%2Fcss%3Ffamily%3DPoppins;fontSize=14;" vertex="1" parent="1">
          <mxGeometry x="860" y="740" width="350" height="120" as="geometry" />
        </mxCell>
        <mxCell id="_3fMvBpomGZ4TNmyy_1x-9" value="" style="shape=tableRow;horizontal=0;startSize=0;swimlaneHead=0;swimlaneBody=0;fillColor=#eeeeee;collapsible=0;dropTarget=0;points=[[0,0.5],[1,0.5]];portConstraint=eastwest;top=0;left=0;right=0;bottom=1;strokeColor=#36393d;rounded=0;fontFamily=Poppins;fontSource=https%3A%2F%2Ffonts.googleapis.com%2Fcss%3Ffamily%3DPoppins;" vertex="1" parent="_3fMvBpomGZ4TNmyy_1x-8">
          <mxGeometry y="30" width="350" height="30" as="geometry" />
        </mxCell>
        <mxCell id="_3fMvBpomGZ4TNmyy_1x-10" value="PK" style="shape=partialRectangle;connectable=0;fillColor=#eeeeee;top=0;left=0;bottom=0;right=0;fontStyle=1;overflow=hidden;whiteSpace=wrap;html=1;strokeColor=#36393d;rounded=0;fontFamily=Poppins;fontSource=https%3A%2F%2Ffonts.googleapis.com%2Fcss%3Ffamily%3DPoppins;" vertex="1" parent="_3fMvBpomGZ4TNmyy_1x-9">
          <mxGeometry width="30" height="30" as="geometry">
            <mxRectangle width="30" height="30" as="alternateBounds" />
          </mxGeometry>
        </mxCell>
        <mxCell id="_3fMvBpomGZ4TNmyy_1x-11" value="ID INT AUTO_INCREMENT NOT NULL" style="shape=partialRectangle;connectable=0;fillColor=#eeeeee;top=0;left=0;bottom=0;right=0;align=left;spacingLeft=6;fontStyle=5;overflow=hidden;whiteSpace=wrap;html=1;strokeColor=#36393d;rounded=0;fontFamily=Poppins;fontSource=https%3A%2F%2Ffonts.googleapis.com%2Fcss%3Ffamily%3DPoppins;" vertex="1" parent="_3fMvBpomGZ4TNmyy_1x-9">
          <mxGeometry x="30" width="320" height="30" as="geometry">
            <mxRectangle width="320" height="30" as="alternateBounds" />
          </mxGeometry>
        </mxCell>
        <mxCell id="_3fMvBpomGZ4TNmyy_1x-12" value="" style="shape=tableRow;horizontal=0;startSize=0;swimlaneHead=0;swimlaneBody=0;fillColor=#eeeeee;collapsible=0;dropTarget=0;points=[[0,0.5],[1,0.5]];portConstraint=eastwest;top=0;left=0;right=0;bottom=0;strokeColor=#36393d;rounded=0;fontFamily=Poppins;fontSource=https%3A%2F%2Ffonts.googleapis.com%2Fcss%3Ffamily%3DPoppins;" vertex="1" parent="_3fMvBpomGZ4TNmyy_1x-8">
          <mxGeometry y="60" width="350" height="30" as="geometry" />
        </mxCell>
        <mxCell id="_3fMvBpomGZ4TNmyy_1x-13" value="" style="shape=partialRectangle;connectable=0;fillColor=#eeeeee;top=0;left=0;bottom=0;right=0;editable=1;overflow=hidden;whiteSpace=wrap;html=1;strokeColor=#36393d;rounded=0;fontFamily=Poppins;fontSource=https%3A%2F%2Ffonts.googleapis.com%2Fcss%3Ffamily%3DPoppins;" vertex="1" parent="_3fMvBpomGZ4TNmyy_1x-12">
          <mxGeometry width="30" height="30" as="geometry">
            <mxRectangle width="30" height="30" as="alternateBounds" />
          </mxGeometry>
        </mxCell>
        <mxCell id="_3fMvBpomGZ4TNmyy_1x-14" value="NAME_PROJECT VARCHAR(30) NOT NULL UNIQUE" style="shape=partialRectangle;connectable=0;fillColor=#eeeeee;top=0;left=0;bottom=0;right=0;align=left;spacingLeft=6;overflow=hidden;whiteSpace=wrap;html=1;strokeColor=#36393d;rounded=0;fontFamily=Poppins;fontSource=https%3A%2F%2Ffonts.googleapis.com%2Fcss%3Ffamily%3DPoppins;" vertex="1" parent="_3fMvBpomGZ4TNmyy_1x-12">
          <mxGeometry x="30" width="320" height="30" as="geometry">
            <mxRectangle width="320" height="30" as="alternateBounds" />
          </mxGeometry>
        </mxCell>
        <mxCell id="_3fMvBpomGZ4TNmyy_1x-15" value="" style="shape=tableRow;horizontal=0;startSize=0;swimlaneHead=0;swimlaneBody=0;fillColor=#eeeeee;collapsible=0;dropTarget=0;points=[[0,0.5],[1,0.5]];portConstraint=eastwest;top=0;left=0;right=0;bottom=0;strokeColor=#36393d;rounded=0;fontFamily=Poppins;fontSource=https%3A%2F%2Ffonts.googleapis.com%2Fcss%3Ffamily%3DPoppins;" vertex="1" parent="_3fMvBpomGZ4TNmyy_1x-8">
          <mxGeometry y="90" width="350" height="30" as="geometry" />
        </mxCell>
        <mxCell id="_3fMvBpomGZ4TNmyy_1x-16" value="FK" style="shape=partialRectangle;connectable=0;fillColor=#eeeeee;top=0;left=0;bottom=0;right=0;fontStyle=0;overflow=hidden;whiteSpace=wrap;html=1;strokeColor=#36393d;rounded=0;fontFamily=Poppins;fontSource=https%3A%2F%2Ffonts.googleapis.com%2Fcss%3Ffamily%3DPoppins;" vertex="1" parent="_3fMvBpomGZ4TNmyy_1x-15">
          <mxGeometry width="30" height="30" as="geometry">
            <mxRectangle width="30" height="30" as="alternateBounds" />
          </mxGeometry>
        </mxCell>
        <mxCell id="_3fMvBpomGZ4TNmyy_1x-17" value="ID_CITY INT NOT NULL" style="shape=partialRectangle;connectable=0;fillColor=#eeeeee;top=0;left=0;bottom=0;right=0;align=left;spacingLeft=6;fontStyle=0;overflow=hidden;whiteSpace=wrap;html=1;strokeColor=#36393d;rounded=0;fontFamily=Poppins;fontSource=https%3A%2F%2Ffonts.googleapis.com%2Fcss%3Ffamily%3DPoppins;" vertex="1" parent="_3fMvBpomGZ4TNmyy_1x-15">
          <mxGeometry x="30" width="320" height="30" as="geometry">
            <mxRectangle width="320" height="30" as="alternateBounds" />
          </mxGeometry>
        </mxCell>
        <mxCell id="_3fMvBpomGZ4TNmyy_1x-18" value="CARS" style="shape=table;startSize=30;container=1;collapsible=1;childLayout=tableLayout;fixedRows=1;rowLines=0;fontStyle=1;align=center;resizeLast=1;html=1;fillColor=#07747B;strokeColor=#432D57;fontColor=#ffffff;rounded=0;fontFamily=Poppins;fontSource=https%3A%2F%2Ffonts.googleapis.com%2Fcss%3Ffamily%3DPoppins;fontSize=14;" vertex="1" parent="1">
          <mxGeometry x="1515" y="440" width="338" height="360" as="geometry" />
        </mxCell>
        <mxCell id="_3fMvBpomGZ4TNmyy_1x-19" value="" style="shape=tableRow;horizontal=0;startSize=0;swimlaneHead=0;swimlaneBody=0;fillColor=#eeeeee;collapsible=0;dropTarget=0;points=[[0,0.5],[1,0.5]];portConstraint=eastwest;top=0;left=0;right=0;bottom=1;strokeColor=#36393d;rounded=0;fontFamily=Poppins;fontSource=https%3A%2F%2Ffonts.googleapis.com%2Fcss%3Ffamily%3DPoppins;" vertex="1" parent="_3fMvBpomGZ4TNmyy_1x-18">
          <mxGeometry y="30" width="338" height="30" as="geometry" />
        </mxCell>
        <mxCell id="_3fMvBpomGZ4TNmyy_1x-20" value="PK" style="shape=partialRectangle;connectable=0;fillColor=#eeeeee;top=0;left=0;bottom=0;right=0;fontStyle=1;overflow=hidden;whiteSpace=wrap;html=1;strokeColor=#36393d;rounded=0;fontFamily=Poppins;fontSource=https%3A%2F%2Ffonts.googleapis.com%2Fcss%3Ffamily%3DPoppins;" vertex="1" parent="_3fMvBpomGZ4TNmyy_1x-19">
          <mxGeometry width="30" height="30" as="geometry">
            <mxRectangle width="30" height="30" as="alternateBounds" />
          </mxGeometry>
        </mxCell>
        <mxCell id="_3fMvBpomGZ4TNmyy_1x-21" value="ID INT AUTO_INCREMENT NOT NULL" style="shape=partialRectangle;connectable=0;fillColor=#eeeeee;top=0;left=0;bottom=0;right=0;align=left;spacingLeft=6;fontStyle=5;overflow=hidden;whiteSpace=wrap;html=1;strokeColor=#36393d;rounded=0;fontFamily=Poppins;fontSource=https%3A%2F%2Ffonts.googleapis.com%2Fcss%3Ffamily%3DPoppins;" vertex="1" parent="_3fMvBpomGZ4TNmyy_1x-19">
          <mxGeometry x="30" width="308" height="30" as="geometry">
            <mxRectangle width="308" height="30" as="alternateBounds" />
          </mxGeometry>
        </mxCell>
        <mxCell id="_3fMvBpomGZ4TNmyy_1x-22" value="" style="shape=tableRow;horizontal=0;startSize=0;swimlaneHead=0;swimlaneBody=0;fillColor=#eeeeee;collapsible=0;dropTarget=0;points=[[0,0.5],[1,0.5]];portConstraint=eastwest;top=0;left=0;right=0;bottom=0;strokeColor=#36393d;rounded=0;fontFamily=Poppins;fontSource=https%3A%2F%2Ffonts.googleapis.com%2Fcss%3Ffamily%3DPoppins;" vertex="1" parent="_3fMvBpomGZ4TNmyy_1x-18">
          <mxGeometry y="60" width="338" height="30" as="geometry" />
        </mxCell>
        <mxCell id="_3fMvBpomGZ4TNmyy_1x-23" value="" style="shape=partialRectangle;connectable=0;fillColor=#eeeeee;top=0;left=0;bottom=0;right=0;editable=1;overflow=hidden;whiteSpace=wrap;html=1;strokeColor=#36393d;rounded=0;fontFamily=Poppins;fontSource=https%3A%2F%2Ffonts.googleapis.com%2Fcss%3Ffamily%3DPoppins;" vertex="1" parent="_3fMvBpomGZ4TNmyy_1x-22">
          <mxGeometry width="30" height="30" as="geometry">
            <mxRectangle width="30" height="30" as="alternateBounds" />
          </mxGeometry>
        </mxCell>
        <mxCell id="_3fMvBpomGZ4TNmyy_1x-24" value="MAKE VARCHAR(50) NOT NULL" style="shape=partialRectangle;connectable=0;fillColor=#eeeeee;top=0;left=0;bottom=0;right=0;align=left;spacingLeft=6;overflow=hidden;whiteSpace=wrap;html=1;strokeColor=#36393d;rounded=0;fontFamily=Poppins;fontSource=https%3A%2F%2Ffonts.googleapis.com%2Fcss%3Ffamily%3DPoppins;" vertex="1" parent="_3fMvBpomGZ4TNmyy_1x-22">
          <mxGeometry x="30" width="308" height="30" as="geometry">
            <mxRectangle width="308" height="30" as="alternateBounds" />
          </mxGeometry>
        </mxCell>
        <mxCell id="_3fMvBpomGZ4TNmyy_1x-25" value="" style="shape=tableRow;horizontal=0;startSize=0;swimlaneHead=0;swimlaneBody=0;fillColor=#eeeeee;collapsible=0;dropTarget=0;points=[[0,0.5],[1,0.5]];portConstraint=eastwest;top=0;left=0;right=0;bottom=0;strokeColor=#36393d;fontFamily=Poppins;fontSource=https%3A%2F%2Ffonts.googleapis.com%2Fcss%3Ffamily%3DPoppins;" vertex="1" parent="_3fMvBpomGZ4TNmyy_1x-18">
          <mxGeometry y="90" width="338" height="30" as="geometry" />
        </mxCell>
        <mxCell id="_3fMvBpomGZ4TNmyy_1x-26" value="" style="shape=partialRectangle;connectable=0;fillColor=#eeeeee;top=0;left=0;bottom=0;right=0;editable=1;overflow=hidden;strokeColor=#36393d;fontFamily=Poppins;fontSource=https%3A%2F%2Ffonts.googleapis.com%2Fcss%3Ffamily%3DPoppins;" vertex="1" parent="_3fMvBpomGZ4TNmyy_1x-25">
          <mxGeometry width="30" height="30" as="geometry">
            <mxRectangle width="30" height="30" as="alternateBounds" />
          </mxGeometry>
        </mxCell>
        <mxCell id="_3fMvBpomGZ4TNmyy_1x-27" value="MODEL VARCHAR(50) NOT NULL" style="shape=partialRectangle;connectable=0;fillColor=#eeeeee;top=0;left=0;bottom=0;right=0;align=left;spacingLeft=6;overflow=hidden;strokeColor=#36393d;fontFamily=Poppins;fontSource=https%3A%2F%2Ffonts.googleapis.com%2Fcss%3Ffamily%3DPoppins;" vertex="1" parent="_3fMvBpomGZ4TNmyy_1x-25">
          <mxGeometry x="30" width="308" height="30" as="geometry">
            <mxRectangle width="308" height="30" as="alternateBounds" />
          </mxGeometry>
        </mxCell>
        <mxCell id="_3fMvBpomGZ4TNmyy_1x-28" value="" style="shape=tableRow;horizontal=0;startSize=0;swimlaneHead=0;swimlaneBody=0;fillColor=#eeeeee;collapsible=0;dropTarget=0;points=[[0,0.5],[1,0.5]];portConstraint=eastwest;top=0;left=0;right=0;bottom=0;strokeColor=#36393d;rounded=0;fontFamily=Poppins;fontSource=https%3A%2F%2Ffonts.googleapis.com%2Fcss%3Ffamily%3DPoppins;" vertex="1" parent="_3fMvBpomGZ4TNmyy_1x-18">
          <mxGeometry y="120" width="338" height="30" as="geometry" />
        </mxCell>
        <mxCell id="_3fMvBpomGZ4TNmyy_1x-29" value="" style="shape=partialRectangle;connectable=0;fillColor=#eeeeee;top=0;left=0;bottom=0;right=0;editable=1;overflow=hidden;whiteSpace=wrap;html=1;strokeColor=#36393d;rounded=0;fontFamily=Poppins;fontSource=https%3A%2F%2Ffonts.googleapis.com%2Fcss%3Ffamily%3DPoppins;" vertex="1" parent="_3fMvBpomGZ4TNmyy_1x-28">
          <mxGeometry width="30" height="30" as="geometry">
            <mxRectangle width="30" height="30" as="alternateBounds" />
          </mxGeometry>
        </mxCell>
        <mxCell id="_3fMvBpomGZ4TNmyy_1x-30" value="&lt;span style=&quot;text-wrap-mode: nowrap;&quot;&gt;SEATING_CAPACITY&amp;nbsp;INT NOT NULL&lt;/span&gt;" style="shape=partialRectangle;connectable=0;fillColor=#eeeeee;top=0;left=0;bottom=0;right=0;align=left;spacingLeft=6;overflow=hidden;whiteSpace=wrap;html=1;strokeColor=#36393d;rounded=0;fontFamily=Poppins;fontSource=https%3A%2F%2Ffonts.googleapis.com%2Fcss%3Ffamily%3DPoppins;" vertex="1" parent="_3fMvBpomGZ4TNmyy_1x-28">
          <mxGeometry x="30" width="308" height="30" as="geometry">
            <mxRectangle width="308" height="30" as="alternateBounds" />
          </mxGeometry>
        </mxCell>
        <mxCell id="_3fMvBpomGZ4TNmyy_1x-31" value="" style="shape=tableRow;horizontal=0;startSize=0;swimlaneHead=0;swimlaneBody=0;fillColor=#eeeeee;collapsible=0;dropTarget=0;points=[[0,0.5],[1,0.5]];portConstraint=eastwest;top=0;left=0;right=0;bottom=0;strokeColor=#36393d;fontFamily=Poppins;fontSource=https%3A%2F%2Ffonts.googleapis.com%2Fcss%3Ffamily%3DPoppins;" vertex="1" parent="_3fMvBpomGZ4TNmyy_1x-18">
          <mxGeometry y="150" width="338" height="30" as="geometry" />
        </mxCell>
        <mxCell id="_3fMvBpomGZ4TNmyy_1x-32" value="" style="shape=partialRectangle;connectable=0;fillColor=#eeeeee;top=0;left=0;bottom=0;right=0;editable=1;overflow=hidden;strokeColor=#36393d;fontFamily=Poppins;fontSource=https%3A%2F%2Ffonts.googleapis.com%2Fcss%3Ffamily%3DPoppins;" vertex="1" parent="_3fMvBpomGZ4TNmyy_1x-31">
          <mxGeometry width="30" height="30" as="geometry">
            <mxRectangle width="30" height="30" as="alternateBounds" />
          </mxGeometry>
        </mxCell>
        <mxCell id="_3fMvBpomGZ4TNmyy_1x-33" value="STATUS CHAR(1) NOT NULL" style="shape=partialRectangle;connectable=0;fillColor=#eeeeee;top=0;left=0;bottom=0;right=0;align=left;spacingLeft=6;overflow=hidden;strokeColor=#36393d;fontFamily=Poppins;fontSource=https%3A%2F%2Ffonts.googleapis.com%2Fcss%3Ffamily%3DPoppins;" vertex="1" parent="_3fMvBpomGZ4TNmyy_1x-31">
          <mxGeometry x="30" width="308" height="30" as="geometry">
            <mxRectangle width="308" height="30" as="alternateBounds" />
          </mxGeometry>
        </mxCell>
        <mxCell id="_3fMvBpomGZ4TNmyy_1x-34" value="" style="shape=tableRow;horizontal=0;startSize=0;swimlaneHead=0;swimlaneBody=0;fillColor=#eeeeee;collapsible=0;dropTarget=0;points=[[0,0.5],[1,0.5]];portConstraint=eastwest;top=0;left=0;right=0;bottom=0;strokeColor=#36393d;fontFamily=Poppins;fontSource=https%3A%2F%2Ffonts.googleapis.com%2Fcss%3Ffamily%3DPoppins;" vertex="1" parent="_3fMvBpomGZ4TNmyy_1x-18">
          <mxGeometry y="180" width="338" height="30" as="geometry" />
        </mxCell>
        <mxCell id="_3fMvBpomGZ4TNmyy_1x-35" value="" style="shape=partialRectangle;connectable=0;fillColor=#eeeeee;top=0;left=0;bottom=0;right=0;editable=1;overflow=hidden;strokeColor=#36393d;fontFamily=Poppins;fontSource=https%3A%2F%2Ffonts.googleapis.com%2Fcss%3Ffamily%3DPoppins;" vertex="1" parent="_3fMvBpomGZ4TNmyy_1x-34">
          <mxGeometry width="30" height="30" as="geometry">
            <mxRectangle width="30" height="30" as="alternateBounds" />
          </mxGeometry>
        </mxCell>
        <mxCell id="_3fMvBpomGZ4TNmyy_1x-36" value="NOTE TEXT" style="shape=partialRectangle;connectable=0;fillColor=#eeeeee;top=0;left=0;bottom=0;right=0;align=left;spacingLeft=6;overflow=hidden;strokeColor=#36393d;fontFamily=Poppins;fontSource=https%3A%2F%2Ffonts.googleapis.com%2Fcss%3Ffamily%3DPoppins;" vertex="1" parent="_3fMvBpomGZ4TNmyy_1x-34">
          <mxGeometry x="30" width="308" height="30" as="geometry">
            <mxRectangle width="308" height="30" as="alternateBounds" />
          </mxGeometry>
        </mxCell>
        <mxCell id="_3fMvBpomGZ4TNmyy_1x-37" value="" style="shape=tableRow;horizontal=0;startSize=0;swimlaneHead=0;swimlaneBody=0;fillColor=#eeeeee;collapsible=0;dropTarget=0;points=[[0,0.5],[1,0.5]];portConstraint=eastwest;top=0;left=0;right=0;bottom=0;strokeColor=#36393d;rounded=0;fontFamily=Poppins;fontSource=https%3A%2F%2Ffonts.googleapis.com%2Fcss%3Ffamily%3DPoppins;" vertex="1" parent="_3fMvBpomGZ4TNmyy_1x-18">
          <mxGeometry y="210" width="338" height="30" as="geometry" />
        </mxCell>
        <mxCell id="_3fMvBpomGZ4TNmyy_1x-38" value="" style="shape=partialRectangle;connectable=0;fillColor=#eeeeee;top=0;left=0;bottom=0;right=0;editable=1;overflow=hidden;strokeColor=#36393d;rounded=0;fontFamily=Poppins;fontSource=https%3A%2F%2Ffonts.googleapis.com%2Fcss%3Ffamily%3DPoppins;" vertex="1" parent="_3fMvBpomGZ4TNmyy_1x-37">
          <mxGeometry width="30" height="30" as="geometry">
            <mxRectangle width="30" height="30" as="alternateBounds" />
          </mxGeometry>
        </mxCell>
        <mxCell id="_3fMvBpomGZ4TNmyy_1x-39" value="USER_REG VARCHAR(60) NOT NULL" style="shape=partialRectangle;connectable=0;fillColor=#eeeeee;top=0;left=0;bottom=0;right=0;align=left;spacingLeft=6;overflow=hidden;strokeColor=#36393d;rounded=0;fontFamily=Poppins;fontSource=https%3A%2F%2Ffonts.googleapis.com%2Fcss%3Ffamily%3DPoppins;" vertex="1" parent="_3fMvBpomGZ4TNmyy_1x-37">
          <mxGeometry x="30" width="308" height="30" as="geometry">
            <mxRectangle width="308" height="30" as="alternateBounds" />
          </mxGeometry>
        </mxCell>
        <mxCell id="_3fMvBpomGZ4TNmyy_1x-40" value="" style="shape=tableRow;horizontal=0;startSize=0;swimlaneHead=0;swimlaneBody=0;fillColor=#eeeeee;collapsible=0;dropTarget=0;points=[[0,0.5],[1,0.5]];portConstraint=eastwest;top=0;left=0;right=0;bottom=0;strokeColor=#36393d;rounded=0;fontFamily=Poppins;fontSource=https%3A%2F%2Ffonts.googleapis.com%2Fcss%3Ffamily%3DPoppins;" vertex="1" parent="_3fMvBpomGZ4TNmyy_1x-18">
          <mxGeometry y="240" width="338" height="30" as="geometry" />
        </mxCell>
        <mxCell id="_3fMvBpomGZ4TNmyy_1x-41" value="" style="shape=partialRectangle;connectable=0;fillColor=#eeeeee;top=0;left=0;bottom=0;right=0;editable=1;overflow=hidden;strokeColor=#36393d;rounded=0;fontFamily=Poppins;fontSource=https%3A%2F%2Ffonts.googleapis.com%2Fcss%3Ffamily%3DPoppins;" vertex="1" parent="_3fMvBpomGZ4TNmyy_1x-40">
          <mxGeometry width="30" height="30" as="geometry">
            <mxRectangle width="30" height="30" as="alternateBounds" />
          </mxGeometry>
        </mxCell>
        <mxCell id="_3fMvBpomGZ4TNmyy_1x-42" value="DATE_REG DATETIME NOT NULL" style="shape=partialRectangle;connectable=0;fillColor=#eeeeee;top=0;left=0;bottom=0;right=0;align=left;spacingLeft=6;overflow=hidden;strokeColor=#36393d;rounded=0;fontFamily=Poppins;fontSource=https%3A%2F%2Ffonts.googleapis.com%2Fcss%3Ffamily%3DPoppins;" vertex="1" parent="_3fMvBpomGZ4TNmyy_1x-40">
          <mxGeometry x="30" width="308" height="30" as="geometry">
            <mxRectangle width="308" height="30" as="alternateBounds" />
          </mxGeometry>
        </mxCell>
        <mxCell id="_3fMvBpomGZ4TNmyy_1x-43" value="" style="shape=tableRow;horizontal=0;startSize=0;swimlaneHead=0;swimlaneBody=0;fillColor=#eeeeee;collapsible=0;dropTarget=0;points=[[0,0.5],[1,0.5]];portConstraint=eastwest;top=0;left=0;right=0;bottom=0;strokeColor=#36393d;rounded=0;fontFamily=Poppins;fontSource=https%3A%2F%2Ffonts.googleapis.com%2Fcss%3Ffamily%3DPoppins;" vertex="1" parent="_3fMvBpomGZ4TNmyy_1x-18">
          <mxGeometry y="270" width="338" height="30" as="geometry" />
        </mxCell>
        <mxCell id="_3fMvBpomGZ4TNmyy_1x-44" value="" style="shape=partialRectangle;connectable=0;fillColor=#eeeeee;top=0;left=0;bottom=0;right=0;fontStyle=0;overflow=hidden;whiteSpace=wrap;html=1;strokeColor=#36393d;rounded=0;fontFamily=Poppins;fontSource=https%3A%2F%2Ffonts.googleapis.com%2Fcss%3Ffamily%3DPoppins;" vertex="1" parent="_3fMvBpomGZ4TNmyy_1x-43">
          <mxGeometry width="30" height="30" as="geometry">
            <mxRectangle width="30" height="30" as="alternateBounds" />
          </mxGeometry>
        </mxCell>
        <mxCell id="_3fMvBpomGZ4TNmyy_1x-45" value="USER_MOD VARCHAR(60)&amp;nbsp;" style="shape=partialRectangle;connectable=0;fillColor=#eeeeee;top=0;left=0;bottom=0;right=0;align=left;spacingLeft=6;fontStyle=0;overflow=hidden;whiteSpace=wrap;html=1;strokeColor=#36393d;rounded=0;fontFamily=Poppins;fontSource=https%3A%2F%2Ffonts.googleapis.com%2Fcss%3Ffamily%3DPoppins;" vertex="1" parent="_3fMvBpomGZ4TNmyy_1x-43">
          <mxGeometry x="30" width="308" height="30" as="geometry">
            <mxRectangle width="308" height="30" as="alternateBounds" />
          </mxGeometry>
        </mxCell>
        <mxCell id="_3fMvBpomGZ4TNmyy_1x-46" value="" style="shape=tableRow;horizontal=0;startSize=0;swimlaneHead=0;swimlaneBody=0;fillColor=#eeeeee;collapsible=0;dropTarget=0;points=[[0,0.5],[1,0.5]];portConstraint=eastwest;top=0;left=0;right=0;bottom=0;strokeColor=#36393d;rounded=0;fontFamily=Poppins;fontSource=https%3A%2F%2Ffonts.googleapis.com%2Fcss%3Ffamily%3DPoppins;" vertex="1" parent="_3fMvBpomGZ4TNmyy_1x-18">
          <mxGeometry y="300" width="338" height="30" as="geometry" />
        </mxCell>
        <mxCell id="_3fMvBpomGZ4TNmyy_1x-47" value="" style="shape=partialRectangle;connectable=0;fillColor=#eeeeee;top=0;left=0;bottom=0;right=0;editable=1;overflow=hidden;strokeColor=#36393d;rounded=0;fontFamily=Poppins;fontSource=https%3A%2F%2Ffonts.googleapis.com%2Fcss%3Ffamily%3DPoppins;" vertex="1" parent="_3fMvBpomGZ4TNmyy_1x-46">
          <mxGeometry width="30" height="30" as="geometry">
            <mxRectangle width="30" height="30" as="alternateBounds" />
          </mxGeometry>
        </mxCell>
        <mxCell id="_3fMvBpomGZ4TNmyy_1x-48" value="DATE_MOD DATETIMEÂ " style="shape=partialRectangle;connectable=0;fillColor=#eeeeee;top=0;left=0;bottom=0;right=0;align=left;spacingLeft=6;overflow=hidden;strokeColor=#36393d;rounded=0;fontFamily=Poppins;fontSource=https%3A%2F%2Ffonts.googleapis.com%2Fcss%3Ffamily%3DPoppins;" vertex="1" parent="_3fMvBpomGZ4TNmyy_1x-46">
          <mxGeometry x="30" width="308" height="30" as="geometry">
            <mxRectangle width="308" height="30" as="alternateBounds" />
          </mxGeometry>
        </mxCell>
        <mxCell id="_3fMvBpomGZ4TNmyy_1x-49" value="" style="shape=tableRow;horizontal=0;startSize=0;swimlaneHead=0;swimlaneBody=0;fillColor=#eeeeee;collapsible=0;dropTarget=0;points=[[0,0.5],[1,0.5]];portConstraint=eastwest;top=0;left=0;right=0;bottom=0;strokeColor=#36393d;rounded=0;fontFamily=Poppins;fontSource=https%3A%2F%2Ffonts.googleapis.com%2Fcss%3Ffamily%3DPoppins;" vertex="1" parent="_3fMvBpomGZ4TNmyy_1x-18">
          <mxGeometry y="330" width="338" height="30" as="geometry" />
        </mxCell>
        <mxCell id="_3fMvBpomGZ4TNmyy_1x-50" value="FK" style="shape=partialRectangle;connectable=0;fillColor=#eeeeee;top=0;left=0;bottom=0;right=0;fontStyle=0;overflow=hidden;whiteSpace=wrap;html=1;strokeColor=#36393d;rounded=0;fontFamily=Poppins;fontSource=https%3A%2F%2Ffonts.googleapis.com%2Fcss%3Ffamily%3DPoppins;" vertex="1" parent="_3fMvBpomGZ4TNmyy_1x-49">
          <mxGeometry width="30" height="30" as="geometry">
            <mxRectangle width="30" height="30" as="alternateBounds" />
          </mxGeometry>
        </mxCell>
        <mxCell id="_3fMvBpomGZ4TNmyy_1x-51" value="ID_PROJECT&amp;nbsp;INT NOT NULL" style="shape=partialRectangle;connectable=0;fillColor=#eeeeee;top=0;left=0;bottom=0;right=0;align=left;spacingLeft=6;fontStyle=0;overflow=hidden;whiteSpace=wrap;html=1;strokeColor=#36393d;rounded=0;fontFamily=Poppins;fontSource=https%3A%2F%2Ffonts.googleapis.com%2Fcss%3Ffamily%3DPoppins;" vertex="1" parent="_3fMvBpomGZ4TNmyy_1x-49">
          <mxGeometry x="30" width="308" height="30" as="geometry">
            <mxRectangle width="308" height="30" as="alternateBounds" />
          </mxGeometry>
        </mxCell>
        <mxCell id="_3fMvBpomGZ4TNmyy_1x-52" value="USERS_PROJECTS" style="shape=table;startSize=30;container=1;collapsible=1;childLayout=tableLayout;fixedRows=1;rowLines=0;fontStyle=1;align=center;resizeLast=1;html=1;fillColor=#07747B;strokeColor=#432D57;fontColor=#ffffff;rounded=0;fontFamily=Poppins;fontSource=https%3A%2F%2Ffonts.googleapis.com%2Fcss%3Ffamily%3DPoppins;fontSize=14;" vertex="1" parent="1">
          <mxGeometry x="1271" y="351" width="210" height="90" as="geometry" />
        </mxCell>
        <mxCell id="_3fMvBpomGZ4TNmyy_1x-53" value="" style="shape=tableRow;horizontal=0;startSize=0;swimlaneHead=0;swimlaneBody=0;fillColor=#eeeeee;collapsible=0;dropTarget=0;points=[[0,0.5],[1,0.5]];portConstraint=eastwest;top=0;left=0;right=0;bottom=0;strokeColor=#36393d;rounded=0;fontStyle=1;fontFamily=Poppins;fontSource=https%3A%2F%2Ffonts.googleapis.com%2Fcss%3Ffamily%3DPoppins;" vertex="1" parent="_3fMvBpomGZ4TNmyy_1x-52">
          <mxGeometry y="30" width="210" height="30" as="geometry" />
        </mxCell>
        <mxCell id="_3fMvBpomGZ4TNmyy_1x-54" value="&lt;b&gt;PF&lt;/b&gt;" style="shape=partialRectangle;connectable=0;fillColor=#eeeeee;top=0;left=0;bottom=0;right=0;fontStyle=0;overflow=hidden;whiteSpace=wrap;html=1;strokeColor=#36393d;rounded=0;fontFamily=Poppins;fontSource=https%3A%2F%2Ffonts.googleapis.com%2Fcss%3Ffamily%3DPoppins;" vertex="1" parent="_3fMvBpomGZ4TNmyy_1x-53">
          <mxGeometry width="30" height="30" as="geometry">
            <mxRectangle width="30" height="30" as="alternateBounds" />
          </mxGeometry>
        </mxCell>
        <mxCell id="_3fMvBpomGZ4TNmyy_1x-55" value="&lt;b&gt;ID_USER INT NOT NULL&lt;/b&gt;" style="shape=partialRectangle;connectable=0;fillColor=#eeeeee;top=0;left=0;bottom=0;right=0;align=left;spacingLeft=6;fontStyle=0;overflow=hidden;whiteSpace=wrap;html=1;strokeColor=#36393d;rounded=0;fontFamily=Poppins;fontSource=https%3A%2F%2Ffonts.googleapis.com%2Fcss%3Ffamily%3DPoppins;" vertex="1" parent="_3fMvBpomGZ4TNmyy_1x-53">
          <mxGeometry x="30" width="180" height="30" as="geometry">
            <mxRectangle width="180" height="30" as="alternateBounds" />
          </mxGeometry>
        </mxCell>
        <mxCell id="_3fMvBpomGZ4TNmyy_1x-56" value="" style="shape=tableRow;horizontal=0;startSize=0;swimlaneHead=0;swimlaneBody=0;fillColor=#eeeeee;collapsible=0;dropTarget=0;points=[[0,0.5],[1,0.5]];portConstraint=eastwest;top=0;left=0;right=0;bottom=0;strokeColor=#36393d;fontFamily=Poppins;fontSource=https%3A%2F%2Ffonts.googleapis.com%2Fcss%3Ffamily%3DPoppins;" vertex="1" parent="_3fMvBpomGZ4TNmyy_1x-52">
          <mxGeometry y="60" width="210" height="30" as="geometry" />
        </mxCell>
        <mxCell id="_3fMvBpomGZ4TNmyy_1x-57" value="&lt;b&gt;PF&lt;/b&gt;" style="shape=partialRectangle;connectable=0;fillColor=#eeeeee;top=0;left=0;bottom=0;right=0;fontStyle=0;overflow=hidden;whiteSpace=wrap;html=1;strokeColor=#36393d;fontFamily=Poppins;fontSource=https%3A%2F%2Ffonts.googleapis.com%2Fcss%3Ffamily%3DPoppins;" vertex="1" parent="_3fMvBpomGZ4TNmyy_1x-56">
          <mxGeometry width="30" height="30" as="geometry">
            <mxRectangle width="30" height="30" as="alternateBounds" />
          </mxGeometry>
        </mxCell>
        <mxCell id="_3fMvBpomGZ4TNmyy_1x-58" value="&lt;b&gt;ID_PROJECT INT NOT NULL&lt;/b&gt;" style="shape=partialRectangle;connectable=0;fillColor=#eeeeee;top=0;left=0;bottom=0;right=0;align=left;spacingLeft=6;fontStyle=0;overflow=hidden;whiteSpace=wrap;html=1;strokeColor=#36393d;fontFamily=Poppins;fontSource=https%3A%2F%2Ffonts.googleapis.com%2Fcss%3Ffamily%3DPoppins;" vertex="1" parent="_3fMvBpomGZ4TNmyy_1x-56">
          <mxGeometry x="30" width="180" height="30" as="geometry">
            <mxRectangle width="180" height="30" as="alternateBounds" />
          </mxGeometry>
        </mxCell>
        <mxCell id="_3fMvBpomGZ4TNmyy_1x-81" value="USERS" style="shape=table;startSize=30;container=1;collapsible=1;childLayout=tableLayout;fixedRows=1;rowLines=0;fontStyle=1;align=center;resizeLast=1;fillColor=#07747B;strokeColor=#432D57;fontColor=#ffffff;rounded=0;fontFamily=Poppins;fontSource=https%3A%2F%2Ffonts.googleapis.com%2Fcss%3Ffamily%3DPoppins;fontSize=14;" vertex="1" parent="1">
          <mxGeometry x="900" y="351" width="329" height="270" as="geometry">
            <mxRectangle x="120" y="120" width="90" height="30" as="alternateBounds" />
          </mxGeometry>
        </mxCell>
        <mxCell id="_3fMvBpomGZ4TNmyy_1x-82" value="" style="shape=partialRectangle;collapsible=0;dropTarget=0;pointerEvents=0;points=[[0,0.5],[1,0.5]];portConstraint=eastwest;top=0;left=0;right=0;bottom=1;rounded=0;fontFamily=Poppins;fontSource=https%3A%2F%2Ffonts.googleapis.com%2Fcss%3Ffamily%3DPoppins;fillColor=#eeeeee;strokeColor=#36393d;" vertex="1" parent="_3fMvBpomGZ4TNmyy_1x-81">
          <mxGeometry y="30" width="329" height="30" as="geometry" />
        </mxCell>
        <mxCell id="_3fMvBpomGZ4TNmyy_1x-83" value="PK" style="shape=partialRectangle;overflow=hidden;connectable=0;top=0;left=0;bottom=0;right=0;fontStyle=1;rounded=0;fontFamily=Poppins;fontSource=https%3A%2F%2Ffonts.googleapis.com%2Fcss%3Ffamily%3DPoppins;fillColor=#eeeeee;strokeColor=#36393d;" vertex="1" parent="_3fMvBpomGZ4TNmyy_1x-82">
          <mxGeometry width="30" height="30" as="geometry">
            <mxRectangle width="30" height="30" as="alternateBounds" />
          </mxGeometry>
        </mxCell>
        <mxCell id="_3fMvBpomGZ4TNmyy_1x-84" value="ID INT AUTO_INCREMENT NOT NULL" style="shape=partialRectangle;overflow=hidden;connectable=0;top=0;left=0;bottom=0;right=0;align=left;spacingLeft=6;fontStyle=5;rounded=0;fontFamily=Poppins;fontSource=https%3A%2F%2Ffonts.googleapis.com%2Fcss%3Ffamily%3DPoppins;fillColor=#eeeeee;strokeColor=#36393d;" vertex="1" parent="_3fMvBpomGZ4TNmyy_1x-82">
          <mxGeometry x="30" width="299" height="30" as="geometry">
            <mxRectangle width="299" height="30" as="alternateBounds" />
          </mxGeometry>
        </mxCell>
        <mxCell id="_3fMvBpomGZ4TNmyy_1x-85" value="" style="shape=partialRectangle;collapsible=0;dropTarget=0;pointerEvents=0;points=[[0,0.5],[1,0.5]];portConstraint=eastwest;top=0;left=0;right=0;bottom=0;rounded=0;fontFamily=Poppins;fontSource=https%3A%2F%2Ffonts.googleapis.com%2Fcss%3Ffamily%3DPoppins;fillColor=#eeeeee;strokeColor=#36393d;" vertex="1" parent="_3fMvBpomGZ4TNmyy_1x-81">
          <mxGeometry y="60" width="329" height="30" as="geometry" />
        </mxCell>
        <mxCell id="_3fMvBpomGZ4TNmyy_1x-86" value="" style="shape=partialRectangle;overflow=hidden;connectable=0;top=0;left=0;bottom=0;right=0;rounded=0;fontFamily=Poppins;fontSource=https%3A%2F%2Ffonts.googleapis.com%2Fcss%3Ffamily%3DPoppins;fillColor=#eeeeee;strokeColor=#36393d;" vertex="1" parent="_3fMvBpomGZ4TNmyy_1x-85">
          <mxGeometry width="30" height="30" as="geometry">
            <mxRectangle width="30" height="30" as="alternateBounds" />
          </mxGeometry>
        </mxCell>
        <mxCell id="_3fMvBpomGZ4TNmyy_1x-87" value="EMAIL VARCHAR(60) NOT NULL UNIQUE" style="shape=partialRectangle;overflow=hidden;connectable=0;top=0;left=0;bottom=0;right=0;align=left;spacingLeft=6;rounded=0;fontFamily=Poppins;fontSource=https%3A%2F%2Ffonts.googleapis.com%2Fcss%3Ffamily%3DPoppins;fillColor=#eeeeee;strokeColor=#36393d;" vertex="1" parent="_3fMvBpomGZ4TNmyy_1x-85">
          <mxGeometry x="30" width="299" height="30" as="geometry">
            <mxRectangle width="299" height="30" as="alternateBounds" />
          </mxGeometry>
        </mxCell>
        <mxCell id="_3fMvBpomGZ4TNmyy_1x-88" value="" style="shape=tableRow;horizontal=0;startSize=0;swimlaneHead=0;swimlaneBody=0;collapsible=0;dropTarget=0;points=[[0,0.5],[1,0.5]];portConstraint=eastwest;top=0;left=0;right=0;bottom=0;fontFamily=Poppins;fontSource=https%3A%2F%2Ffonts.googleapis.com%2Fcss%3Ffamily%3DPoppins;fillColor=#eeeeee;strokeColor=#36393d;" vertex="1" parent="_3fMvBpomGZ4TNmyy_1x-81">
          <mxGeometry y="90" width="329" height="30" as="geometry" />
        </mxCell>
        <mxCell id="_3fMvBpomGZ4TNmyy_1x-89" value="" style="shape=partialRectangle;connectable=0;top=0;left=0;bottom=0;right=0;editable=1;overflow=hidden;fontFamily=Poppins;fontSource=https%3A%2F%2Ffonts.googleapis.com%2Fcss%3Ffamily%3DPoppins;fillColor=#eeeeee;strokeColor=#36393d;" vertex="1" parent="_3fMvBpomGZ4TNmyy_1x-88">
          <mxGeometry width="30" height="30" as="geometry">
            <mxRectangle width="30" height="30" as="alternateBounds" />
          </mxGeometry>
        </mxCell>
        <mxCell id="_3fMvBpomGZ4TNmyy_1x-90" value="FIRST_NAMEÂ VARCHAR(60) NOT NULL" style="shape=partialRectangle;connectable=0;top=0;left=0;bottom=0;right=0;align=left;spacingLeft=6;overflow=hidden;fontFamily=Poppins;fontSource=https%3A%2F%2Ffonts.googleapis.com%2Fcss%3Ffamily%3DPoppins;fillColor=#eeeeee;strokeColor=#36393d;" vertex="1" parent="_3fMvBpomGZ4TNmyy_1x-88">
          <mxGeometry x="30" width="299" height="30" as="geometry">
            <mxRectangle width="299" height="30" as="alternateBounds" />
          </mxGeometry>
        </mxCell>
        <mxCell id="_3fMvBpomGZ4TNmyy_1x-91" value="" style="shape=tableRow;horizontal=0;startSize=0;swimlaneHead=0;swimlaneBody=0;collapsible=0;dropTarget=0;points=[[0,0.5],[1,0.5]];portConstraint=eastwest;top=0;left=0;right=0;bottom=0;fontFamily=Poppins;fontSource=https%3A%2F%2Ffonts.googleapis.com%2Fcss%3Ffamily%3DPoppins;fillColor=#eeeeee;strokeColor=#36393d;" vertex="1" parent="_3fMvBpomGZ4TNmyy_1x-81">
          <mxGeometry y="120" width="329" height="30" as="geometry" />
        </mxCell>
        <mxCell id="_3fMvBpomGZ4TNmyy_1x-92" value="" style="shape=partialRectangle;connectable=0;top=0;left=0;bottom=0;right=0;editable=1;overflow=hidden;fontFamily=Poppins;fontSource=https%3A%2F%2Ffonts.googleapis.com%2Fcss%3Ffamily%3DPoppins;fillColor=#eeeeee;strokeColor=#36393d;" vertex="1" parent="_3fMvBpomGZ4TNmyy_1x-91">
          <mxGeometry width="30" height="30" as="geometry">
            <mxRectangle width="30" height="30" as="alternateBounds" />
          </mxGeometry>
        </mxCell>
        <mxCell id="_3fMvBpomGZ4TNmyy_1x-93" value="PATERNAL_LAST_NAMEÂ VARCHAR(60) NOT NULL" style="shape=partialRectangle;connectable=0;top=0;left=0;bottom=0;right=0;align=left;spacingLeft=6;overflow=hidden;fontFamily=Poppins;fontSource=https%3A%2F%2Ffonts.googleapis.com%2Fcss%3Ffamily%3DPoppins;fillColor=#eeeeee;strokeColor=#36393d;" vertex="1" parent="_3fMvBpomGZ4TNmyy_1x-91">
          <mxGeometry x="30" width="299" height="30" as="geometry">
            <mxRectangle width="299" height="30" as="alternateBounds" />
          </mxGeometry>
        </mxCell>
        <mxCell id="_3fMvBpomGZ4TNmyy_1x-94" value="" style="shape=tableRow;horizontal=0;startSize=0;swimlaneHead=0;swimlaneBody=0;collapsible=0;dropTarget=0;points=[[0,0.5],[1,0.5]];portConstraint=eastwest;top=0;left=0;right=0;bottom=0;fontFamily=Poppins;fontSource=https%3A%2F%2Ffonts.googleapis.com%2Fcss%3Ffamily%3DPoppins;fillColor=#eeeeee;strokeColor=#36393d;" vertex="1" parent="_3fMvBpomGZ4TNmyy_1x-81">
          <mxGeometry y="150" width="329" height="30" as="geometry" />
        </mxCell>
        <mxCell id="_3fMvBpomGZ4TNmyy_1x-95" value="" style="shape=partialRectangle;connectable=0;top=0;left=0;bottom=0;right=0;editable=1;overflow=hidden;fontFamily=Poppins;fontSource=https%3A%2F%2Ffonts.googleapis.com%2Fcss%3Ffamily%3DPoppins;fillColor=#eeeeee;strokeColor=#36393d;" vertex="1" parent="_3fMvBpomGZ4TNmyy_1x-94">
          <mxGeometry width="30" height="30" as="geometry">
            <mxRectangle width="30" height="30" as="alternateBounds" />
          </mxGeometry>
        </mxCell>
        <mxCell id="_3fMvBpomGZ4TNmyy_1x-96" value="MATERNAL_LAST_NAME VARCHAR(60) NOT NULL" style="shape=partialRectangle;connectable=0;top=0;left=0;bottom=0;right=0;align=left;spacingLeft=6;overflow=hidden;fontFamily=Poppins;fontSource=https%3A%2F%2Ffonts.googleapis.com%2Fcss%3Ffamily%3DPoppins;fillColor=#eeeeee;strokeColor=#36393d;" vertex="1" parent="_3fMvBpomGZ4TNmyy_1x-94">
          <mxGeometry x="30" width="299" height="30" as="geometry">
            <mxRectangle width="299" height="30" as="alternateBounds" />
          </mxGeometry>
        </mxCell>
        <mxCell id="_3fMvBpomGZ4TNmyy_1x-182" value="" style="shape=tableRow;horizontal=0;startSize=0;swimlaneHead=0;swimlaneBody=0;collapsible=0;dropTarget=0;points=[[0,0.5],[1,0.5]];portConstraint=eastwest;top=0;left=0;right=0;bottom=0;fillColor=#eeeeee;strokeColor=#36393d;fontFamily=Poppins;fontSource=https%3A%2F%2Ffonts.googleapis.com%2Fcss%3Ffamily%3DPoppins;" vertex="1" parent="_3fMvBpomGZ4TNmyy_1x-81">
          <mxGeometry y="180" width="329" height="30" as="geometry" />
        </mxCell>
        <mxCell id="_3fMvBpomGZ4TNmyy_1x-183" value="" style="shape=partialRectangle;connectable=0;top=0;left=0;bottom=0;right=0;editable=1;overflow=hidden;fillColor=#eeeeee;strokeColor=#36393d;fontFamily=Poppins;fontSource=https%3A%2F%2Ffonts.googleapis.com%2Fcss%3Ffamily%3DPoppins;" vertex="1" parent="_3fMvBpomGZ4TNmyy_1x-182">
          <mxGeometry width="30" height="30" as="geometry">
            <mxRectangle width="30" height="30" as="alternateBounds" />
          </mxGeometry>
        </mxCell>
        <mxCell id="_3fMvBpomGZ4TNmyy_1x-184" value="PASSWORD VARCHAR(64) NOT NULL" style="shape=partialRectangle;connectable=0;top=0;left=0;bottom=0;right=0;align=left;spacingLeft=6;overflow=hidden;fillColor=#eeeeee;strokeColor=#36393d;fontFamily=Poppins;fontSource=https%3A%2F%2Ffonts.googleapis.com%2Fcss%3Ffamily%3DPoppins;" vertex="1" parent="_3fMvBpomGZ4TNmyy_1x-182">
          <mxGeometry x="30" width="299" height="30" as="geometry">
            <mxRectangle width="299" height="30" as="alternateBounds" />
          </mxGeometry>
        </mxCell>
        <mxCell id="_3fMvBpomGZ4TNmyy_1x-185" value="" style="shape=tableRow;horizontal=0;startSize=0;swimlaneHead=0;swimlaneBody=0;collapsible=0;dropTarget=0;points=[[0,0.5],[1,0.5]];portConstraint=eastwest;top=0;left=0;right=0;bottom=0;fillColor=#eeeeee;strokeColor=#36393d;fontFamily=Poppins;fontSource=https%3A%2F%2Ffonts.googleapis.com%2Fcss%3Ffamily%3DPoppins;" vertex="1" parent="_3fMvBpomGZ4TNmyy_1x-81">
          <mxGeometry y="210" width="329" height="30" as="geometry" />
        </mxCell>
        <mxCell id="_3fMvBpomGZ4TNmyy_1x-186" value="" style="shape=partialRectangle;connectable=0;top=0;left=0;bottom=0;right=0;editable=1;overflow=hidden;fillColor=#eeeeee;strokeColor=#36393d;fontFamily=Poppins;fontSource=https%3A%2F%2Ffonts.googleapis.com%2Fcss%3Ffamily%3DPoppins;" vertex="1" parent="_3fMvBpomGZ4TNmyy_1x-185">
          <mxGeometry width="30" height="30" as="geometry">
            <mxRectangle width="30" height="30" as="alternateBounds" />
          </mxGeometry>
        </mxCell>
        <mxCell id="_3fMvBpomGZ4TNmyy_1x-187" value="ACTIVE CHAR(1) NOT NULL" style="shape=partialRectangle;connectable=0;top=0;left=0;bottom=0;right=0;align=left;spacingLeft=6;overflow=hidden;fillColor=#eeeeee;strokeColor=#36393d;fontFamily=Poppins;fontSource=https%3A%2F%2Ffonts.googleapis.com%2Fcss%3Ffamily%3DPoppins;" vertex="1" parent="_3fMvBpomGZ4TNmyy_1x-185">
          <mxGeometry x="30" width="299" height="30" as="geometry">
            <mxRectangle width="299" height="30" as="alternateBounds" />
          </mxGeometry>
        </mxCell>
        <mxCell id="_3fMvBpomGZ4TNmyy_1x-100" value="" style="shape=tableRow;horizontal=0;startSize=0;swimlaneHead=0;swimlaneBody=0;collapsible=0;dropTarget=0;points=[[0,0.5],[1,0.5]];portConstraint=eastwest;top=0;left=0;right=0;bottom=0;fontFamily=Poppins;fontSource=https%3A%2F%2Ffonts.googleapis.com%2Fcss%3Ffamily%3DPoppins;fillColor=#eeeeee;strokeColor=#36393d;" vertex="1" parent="_3fMvBpomGZ4TNmyy_1x-81">
          <mxGeometry y="240" width="329" height="30" as="geometry" />
        </mxCell>
        <mxCell id="_3fMvBpomGZ4TNmyy_1x-101" value="FK" style="shape=partialRectangle;connectable=0;top=0;left=0;bottom=0;right=0;fontStyle=0;overflow=hidden;whiteSpace=wrap;html=1;fontFamily=Poppins;fontSource=https%3A%2F%2Ffonts.googleapis.com%2Fcss%3Ffamily%3DPoppins;fillColor=#eeeeee;strokeColor=#36393d;" vertex="1" parent="_3fMvBpomGZ4TNmyy_1x-100">
          <mxGeometry width="30" height="30" as="geometry">
            <mxRectangle width="30" height="30" as="alternateBounds" />
          </mxGeometry>
        </mxCell>
        <mxCell id="_3fMvBpomGZ4TNmyy_1x-102" value="ID_ROLE INT NOT NULL" style="shape=partialRectangle;connectable=0;top=0;left=0;bottom=0;right=0;align=left;spacingLeft=6;fontStyle=0;overflow=hidden;whiteSpace=wrap;html=1;fontFamily=Poppins;fontSource=https%3A%2F%2Ffonts.googleapis.com%2Fcss%3Ffamily%3DPoppins;fillColor=#eeeeee;strokeColor=#36393d;" vertex="1" parent="_3fMvBpomGZ4TNmyy_1x-100">
          <mxGeometry x="30" width="299" height="30" as="geometry">
            <mxRectangle width="299" height="30" as="alternateBounds" />
          </mxGeometry>
        </mxCell>
        <mxCell id="_3fMvBpomGZ4TNmyy_1x-103" value="" style="edgeStyle=entityRelationEdgeStyle;fontSize=12;html=1;endArrow=ERoneToMany;rounded=0;exitX=1;exitY=0.5;exitDx=0;exitDy=0;entryX=0;entryY=0.5;entryDx=0;entryDy=0;fontFamily=Poppins;fontSource=https%3A%2F%2Ffonts.googleapis.com%2Fcss%3Ffamily%3DPoppins;" edge="1" parent="1" source="_3fMvBpomGZ4TNmyy_1x-82" target="_3fMvBpomGZ4TNmyy_1x-53">
          <mxGeometry width="100" height="100" relative="1" as="geometry">
            <mxPoint x="1244" y="581" as="sourcePoint" />
            <mxPoint x="1344" y="481" as="targetPoint" />
          </mxGeometry>
        </mxCell>
        <mxCell id="_3fMvBpomGZ4TNmyy_1x-104" value="" style="edgeStyle=entityRelationEdgeStyle;fontSize=12;html=1;endArrow=ERoneToMany;rounded=0;exitX=1;exitY=0.5;exitDx=0;exitDy=0;fontFamily=Poppins;fontSource=https%3A%2F%2Ffonts.googleapis.com%2Fcss%3Ffamily%3DPoppins;" edge="1" parent="1" source="_3fMvBpomGZ4TNmyy_1x-2" target="_3fMvBpomGZ4TNmyy_1x-15">
          <mxGeometry width="100" height="100" relative="1" as="geometry">
            <mxPoint x="979" y="971" as="sourcePoint" />
            <mxPoint x="1039" y="751" as="targetPoint" />
          </mxGeometry>
        </mxCell>
        <mxCell id="_3fMvBpomGZ4TNmyy_1x-105" value="" style="edgeStyle=entityRelationEdgeStyle;fontSize=12;html=1;endArrow=ERoneToMany;rounded=0;entryX=0;entryY=0.5;entryDx=0;entryDy=0;exitX=1;exitY=0.5;exitDx=0;exitDy=0;fontFamily=Poppins;fontSource=https%3A%2F%2Ffonts.googleapis.com%2Fcss%3Ffamily%3DPoppins;" edge="1" parent="1" source="_3fMvBpomGZ4TNmyy_1x-9" target="_3fMvBpomGZ4TNmyy_1x-49">
          <mxGeometry width="100" height="100" relative="1" as="geometry">
            <mxPoint x="1600" y="709" as="sourcePoint" />
            <mxPoint x="1712" y="1021" as="targetPoint" />
            <Array as="points">
              <mxPoint x="2012" y="1006" />
              <mxPoint x="1610" y="719" />
            </Array>
          </mxGeometry>
        </mxCell>
        <mxCell id="_3fMvBpomGZ4TNmyy_1x-107" value="" style="edgeStyle=entityRelationEdgeStyle;fontSize=12;html=1;endArrow=ERoneToMany;rounded=0;exitX=1;exitY=0.5;exitDx=0;exitDy=0;fontFamily=Poppins;fontSource=https%3A%2F%2Ffonts.googleapis.com%2Fcss%3Ffamily%3DPoppins;entryX=0;entryY=0.5;entryDx=0;entryDy=0;" edge="1" parent="1" source="_3fMvBpomGZ4TNmyy_1x-9" target="_3fMvBpomGZ4TNmyy_1x-56">
          <mxGeometry width="100" height="100" relative="1" as="geometry">
            <mxPoint x="1240" y="769" as="sourcePoint" />
            <mxPoint x="1270" y="459" as="targetPoint" />
            <Array as="points">
              <mxPoint x="1290" y="788.5" />
              <mxPoint x="1250" y="608.5" />
            </Array>
          </mxGeometry>
        </mxCell>
        <mxCell id="_3fMvBpomGZ4TNmyy_1x-108" value="ROLES" style="shape=table;startSize=30;container=1;collapsible=1;childLayout=tableLayout;fixedRows=1;rowLines=0;fontStyle=1;align=center;resizeLast=1;html=1;fillColor=#07747B;strokeColor=#432D57;fontColor=#ffffff;rounded=0;fontFamily=Poppins;fontSource=https%3A%2F%2Ffonts.googleapis.com%2Fcss%3Ffamily%3DPoppins;fontSize=14;" vertex="1" parent="1">
          <mxGeometry x="580" y="561" width="280" height="90" as="geometry" />
        </mxCell>
        <mxCell id="_3fMvBpomGZ4TNmyy_1x-109" value="" style="shape=tableRow;horizontal=0;startSize=0;swimlaneHead=0;swimlaneBody=0;fillColor=#eeeeee;collapsible=0;dropTarget=0;points=[[0,0.5],[1,0.5]];portConstraint=eastwest;top=0;left=0;right=0;bottom=1;strokeColor=#36393d;fontFamily=Poppins;fontSource=https%3A%2F%2Ffonts.googleapis.com%2Fcss%3Ffamily%3DPoppins;" vertex="1" parent="_3fMvBpomGZ4TNmyy_1x-108">
          <mxGeometry y="30" width="280" height="30" as="geometry" />
        </mxCell>
        <mxCell id="_3fMvBpomGZ4TNmyy_1x-110" value="PK" style="shape=partialRectangle;connectable=0;fillColor=#eeeeee;top=0;left=0;bottom=0;right=0;fontStyle=1;overflow=hidden;whiteSpace=wrap;html=1;strokeColor=#36393d;fontFamily=Poppins;fontSource=https%3A%2F%2Ffonts.googleapis.com%2Fcss%3Ffamily%3DPoppins;" vertex="1" parent="_3fMvBpomGZ4TNmyy_1x-109">
          <mxGeometry width="30" height="30" as="geometry">
            <mxRectangle width="30" height="30" as="alternateBounds" />
          </mxGeometry>
        </mxCell>
        <mxCell id="_3fMvBpomGZ4TNmyy_1x-111" value="ID INT AUTO_INCREMENT NOT NULL" style="shape=partialRectangle;connectable=0;fillColor=#eeeeee;top=0;left=0;bottom=0;right=0;align=left;spacingLeft=6;fontStyle=5;overflow=hidden;whiteSpace=wrap;html=1;strokeColor=#36393d;fontFamily=Poppins;fontSource=https%3A%2F%2Ffonts.googleapis.com%2Fcss%3Ffamily%3DPoppins;" vertex="1" parent="_3fMvBpomGZ4TNmyy_1x-109">
          <mxGeometry x="30" width="250" height="30" as="geometry">
            <mxRectangle width="250" height="30" as="alternateBounds" />
          </mxGeometry>
        </mxCell>
        <mxCell id="_3fMvBpomGZ4TNmyy_1x-112" value="" style="shape=tableRow;horizontal=0;startSize=0;swimlaneHead=0;swimlaneBody=0;fillColor=#eeeeee;collapsible=0;dropTarget=0;points=[[0,0.5],[1,0.5]];portConstraint=eastwest;top=0;left=0;right=0;bottom=0;strokeColor=#36393d;rounded=0;fontFamily=Poppins;fontSource=https%3A%2F%2Ffonts.googleapis.com%2Fcss%3Ffamily%3DPoppins;" vertex="1" parent="_3fMvBpomGZ4TNmyy_1x-108">
          <mxGeometry y="60" width="280" height="30" as="geometry" />
        </mxCell>
        <mxCell id="_3fMvBpomGZ4TNmyy_1x-113" value="PF" style="shape=partialRectangle;connectable=0;fillColor=#eeeeee;top=0;left=0;bottom=0;right=0;fontStyle=0;overflow=hidden;whiteSpace=wrap;html=1;strokeColor=#36393d;rounded=0;fontFamily=Poppins;fontSource=https%3A%2F%2Ffonts.googleapis.com%2Fcss%3Ffamily%3DPoppins;" vertex="1" parent="_3fMvBpomGZ4TNmyy_1x-112">
          <mxGeometry width="30" height="30" as="geometry">
            <mxRectangle width="30" height="30" as="alternateBounds" />
          </mxGeometry>
        </mxCell>
        <mxCell id="_3fMvBpomGZ4TNmyy_1x-114" value="ROLE VARCHAR(13) NOT NULL UNIQUE" style="shape=partialRectangle;connectable=0;fillColor=#eeeeee;top=0;left=0;bottom=0;right=0;align=left;spacingLeft=6;fontStyle=0;overflow=hidden;whiteSpace=wrap;html=1;strokeColor=#36393d;rounded=0;fontFamily=Poppins;fontSource=https%3A%2F%2Ffonts.googleapis.com%2Fcss%3Ffamily%3DPoppins;" vertex="1" parent="_3fMvBpomGZ4TNmyy_1x-112">
          <mxGeometry x="30" width="250" height="30" as="geometry">
            <mxRectangle width="250" height="30" as="alternateBounds" />
          </mxGeometry>
        </mxCell>
        <mxCell id="_3fMvBpomGZ4TNmyy_1x-115" value="" style="edgeStyle=entityRelationEdgeStyle;fontSize=12;html=1;endArrow=ERoneToMany;rounded=0;exitX=0;exitY=0.5;exitDx=0;exitDy=0;entryX=1;entryY=0.5;entryDx=0;entryDy=0;fontFamily=Poppins;fontSource=https%3A%2F%2Ffonts.googleapis.com%2Fcss%3Ffamily%3DPoppins;" edge="1" parent="1" source="_3fMvBpomGZ4TNmyy_1x-100" target="_3fMvBpomGZ4TNmyy_1x-108">
          <mxGeometry width="100" height="100" relative="1" as="geometry">
            <mxPoint x="869" y="679" as="sourcePoint" />
            <mxPoint x="919" y="679" as="targetPoint" />
            <Array as="points">
              <mxPoint x="879" y="663" />
            </Array>
          </mxGeometry>
        </mxCell>
        <mxCell id="_3fMvBpomGZ4TNmyy_1x-116" value="ROUTES" style="shape=table;startSize=30;container=1;collapsible=1;childLayout=tableLayout;fixedRows=1;rowLines=0;fontStyle=1;align=center;resizeLast=1;html=1;fillColor=#07747B;strokeColor=#432D57;fontColor=#ffffff;rounded=0;fontFamily=Poppins;fontSource=https%3A%2F%2Ffonts.googleapis.com%2Fcss%3Ffamily%3DPoppins;" vertex="1" parent="1">
          <mxGeometry x="1570" y="830" width="310" height="360" as="geometry" />
        </mxCell>
        <mxCell id="_3fMvBpomGZ4TNmyy_1x-117" value="" style="shape=tableRow;horizontal=0;startSize=0;swimlaneHead=0;swimlaneBody=0;fillColor=#eeeeee;collapsible=0;dropTarget=0;points=[[0,0.5],[1,0.5]];portConstraint=eastwest;top=0;left=0;right=0;bottom=1;strokeColor=#36393d;rounded=0;fontFamily=Poppins;fontSource=https%3A%2F%2Ffonts.googleapis.com%2Fcss%3Ffamily%3DPoppins;" vertex="1" parent="_3fMvBpomGZ4TNmyy_1x-116">
          <mxGeometry y="30" width="310" height="30" as="geometry" />
        </mxCell>
        <mxCell id="_3fMvBpomGZ4TNmyy_1x-118" value="PK" style="shape=partialRectangle;connectable=0;fillColor=#eeeeee;top=0;left=0;bottom=0;right=0;fontStyle=1;overflow=hidden;whiteSpace=wrap;html=1;strokeColor=#36393d;rounded=0;fontFamily=Poppins;fontSource=https%3A%2F%2Ffonts.googleapis.com%2Fcss%3Ffamily%3DPoppins;" vertex="1" parent="_3fMvBpomGZ4TNmyy_1x-117">
          <mxGeometry width="30" height="30" as="geometry">
            <mxRectangle width="30" height="30" as="alternateBounds" />
          </mxGeometry>
        </mxCell>
        <mxCell id="_3fMvBpomGZ4TNmyy_1x-119" value="ID INT AUTO_INCREMENT NOT NULL" style="shape=partialRectangle;connectable=0;fillColor=#eeeeee;top=0;left=0;bottom=0;right=0;align=left;spacingLeft=6;fontStyle=5;overflow=hidden;whiteSpace=wrap;html=1;strokeColor=#36393d;rounded=0;fontFamily=Poppins;fontSource=https%3A%2F%2Ffonts.googleapis.com%2Fcss%3Ffamily%3DPoppins;" vertex="1" parent="_3fMvBpomGZ4TNmyy_1x-117">
          <mxGeometry x="30" width="280" height="30" as="geometry">
            <mxRectangle width="280" height="30" as="alternateBounds" />
          </mxGeometry>
        </mxCell>
        <mxCell id="_3fMvBpomGZ4TNmyy_1x-120" value="" style="shape=tableRow;horizontal=0;startSize=0;swimlaneHead=0;swimlaneBody=0;fillColor=#eeeeee;collapsible=0;dropTarget=0;points=[[0,0.5],[1,0.5]];portConstraint=eastwest;top=0;left=0;right=0;bottom=0;strokeColor=#36393d;rounded=0;fontFamily=Poppins;fontSource=https%3A%2F%2Ffonts.googleapis.com%2Fcss%3Ffamily%3DPoppins;" vertex="1" parent="_3fMvBpomGZ4TNmyy_1x-116">
          <mxGeometry y="60" width="310" height="30" as="geometry" />
        </mxCell>
        <mxCell id="_3fMvBpomGZ4TNmyy_1x-121" value="" style="shape=partialRectangle;connectable=0;fillColor=#eeeeee;top=0;left=0;bottom=0;right=0;editable=1;overflow=hidden;whiteSpace=wrap;html=1;strokeColor=#36393d;rounded=0;fontFamily=Poppins;fontSource=https%3A%2F%2Ffonts.googleapis.com%2Fcss%3Ffamily%3DPoppins;" vertex="1" parent="_3fMvBpomGZ4TNmyy_1x-120">
          <mxGeometry width="30" height="30" as="geometry">
            <mxRectangle width="30" height="30" as="alternateBounds" />
          </mxGeometry>
        </mxCell>
        <mxCell id="_3fMvBpomGZ4TNmyy_1x-122" value="&lt;span style=&quot;text-wrap-mode: nowrap;&quot;&gt;NAME VARCHAR(100) NOT NULL UNIQUE&lt;/span&gt;" style="shape=partialRectangle;connectable=0;fillColor=#eeeeee;top=0;left=0;bottom=0;right=0;align=left;spacingLeft=6;overflow=hidden;whiteSpace=wrap;html=1;strokeColor=#36393d;rounded=0;fontFamily=Poppins;fontSource=https%3A%2F%2Ffonts.googleapis.com%2Fcss%3Ffamily%3DPoppins;" vertex="1" parent="_3fMvBpomGZ4TNmyy_1x-120">
          <mxGeometry x="30" width="280" height="30" as="geometry">
            <mxRectangle width="280" height="30" as="alternateBounds" />
          </mxGeometry>
        </mxCell>
        <mxCell id="_3fMvBpomGZ4TNmyy_1x-123" value="" style="shape=tableRow;horizontal=0;startSize=0;swimlaneHead=0;swimlaneBody=0;fillColor=#eeeeee;collapsible=0;dropTarget=0;points=[[0,0.5],[1,0.5]];portConstraint=eastwest;top=0;left=0;right=0;bottom=0;strokeColor=#36393d;fontFamily=Poppins;fontSource=https%3A%2F%2Ffonts.googleapis.com%2Fcss%3Ffamily%3DPoppins;" vertex="1" parent="_3fMvBpomGZ4TNmyy_1x-116">
          <mxGeometry y="90" width="310" height="30" as="geometry" />
        </mxCell>
        <mxCell id="_3fMvBpomGZ4TNmyy_1x-124" value="" style="shape=partialRectangle;connectable=0;fillColor=#eeeeee;top=0;left=0;bottom=0;right=0;editable=1;overflow=hidden;strokeColor=#36393d;fontFamily=Poppins;fontSource=https%3A%2F%2Ffonts.googleapis.com%2Fcss%3Ffamily%3DPoppins;" vertex="1" parent="_3fMvBpomGZ4TNmyy_1x-123">
          <mxGeometry width="30" height="30" as="geometry">
            <mxRectangle width="30" height="30" as="alternateBounds" />
          </mxGeometry>
        </mxCell>
        <mxCell id="_3fMvBpomGZ4TNmyy_1x-125" value="START_LOCATIONÂ VARCHAR(100) NOT NULL" style="shape=partialRectangle;connectable=0;fillColor=#eeeeee;top=0;left=0;bottom=0;right=0;align=left;spacingLeft=6;overflow=hidden;strokeColor=#36393d;fontFamily=Poppins;fontSource=https%3A%2F%2Ffonts.googleapis.com%2Fcss%3Ffamily%3DPoppins;" vertex="1" parent="_3fMvBpomGZ4TNmyy_1x-123">
          <mxGeometry x="30" width="280" height="30" as="geometry">
            <mxRectangle width="280" height="30" as="alternateBounds" />
          </mxGeometry>
        </mxCell>
        <mxCell id="_3fMvBpomGZ4TNmyy_1x-126" value="" style="shape=tableRow;horizontal=0;startSize=0;swimlaneHead=0;swimlaneBody=0;fillColor=#eeeeee;collapsible=0;dropTarget=0;points=[[0,0.5],[1,0.5]];portConstraint=eastwest;top=0;left=0;right=0;bottom=0;strokeColor=#36393d;fontFamily=Poppins;fontSource=https%3A%2F%2Ffonts.googleapis.com%2Fcss%3Ffamily%3DPoppins;" vertex="1" parent="_3fMvBpomGZ4TNmyy_1x-116">
          <mxGeometry y="120" width="310" height="30" as="geometry" />
        </mxCell>
        <mxCell id="_3fMvBpomGZ4TNmyy_1x-127" value="" style="shape=partialRectangle;connectable=0;fillColor=#eeeeee;top=0;left=0;bottom=0;right=0;editable=1;overflow=hidden;strokeColor=#36393d;fontFamily=Poppins;fontSource=https%3A%2F%2Ffonts.googleapis.com%2Fcss%3Ffamily%3DPoppins;" vertex="1" parent="_3fMvBpomGZ4TNmyy_1x-126">
          <mxGeometry width="30" height="30" as="geometry">
            <mxRectangle width="30" height="30" as="alternateBounds" />
          </mxGeometry>
        </mxCell>
        <mxCell id="_3fMvBpomGZ4TNmyy_1x-128" value="END_LOCATION VARCHAR(100) NOT NULL" style="shape=partialRectangle;connectable=0;fillColor=#eeeeee;top=0;left=0;bottom=0;right=0;align=left;spacingLeft=6;overflow=hidden;strokeColor=#36393d;fontFamily=Poppins;fontSource=https%3A%2F%2Ffonts.googleapis.com%2Fcss%3Ffamily%3DPoppins;" vertex="1" parent="_3fMvBpomGZ4TNmyy_1x-126">
          <mxGeometry x="30" width="280" height="30" as="geometry">
            <mxRectangle width="280" height="30" as="alternateBounds" />
          </mxGeometry>
        </mxCell>
        <mxCell id="_3fMvBpomGZ4TNmyy_1x-201" value="" style="shape=tableRow;horizontal=0;startSize=0;swimlaneHead=0;swimlaneBody=0;fillColor=#eeeeee;collapsible=0;dropTarget=0;points=[[0,0.5],[1,0.5]];portConstraint=eastwest;top=0;left=0;right=0;bottom=0;strokeColor=#36393d;" vertex="1" parent="_3fMvBpomGZ4TNmyy_1x-116">
          <mxGeometry y="150" width="310" height="30" as="geometry" />
        </mxCell>
        <mxCell id="_3fMvBpomGZ4TNmyy_1x-202" value="" style="shape=partialRectangle;connectable=0;fillColor=#eeeeee;top=0;left=0;bottom=0;right=0;editable=1;overflow=hidden;strokeColor=#36393d;" vertex="1" parent="_3fMvBpomGZ4TNmyy_1x-201">
          <mxGeometry width="30" height="30" as="geometry">
            <mxRectangle width="30" height="30" as="alternateBounds" />
          </mxGeometry>
        </mxCell>
        <mxCell id="_3fMvBpomGZ4TNmyy_1x-203" value="STATUS CHAR(1) NOT NULL" style="shape=partialRectangle;connectable=0;fillColor=#eeeeee;top=0;left=0;bottom=0;right=0;align=left;spacingLeft=6;overflow=hidden;strokeColor=#36393d;" vertex="1" parent="_3fMvBpomGZ4TNmyy_1x-201">
          <mxGeometry x="30" width="280" height="30" as="geometry">
            <mxRectangle width="280" height="30" as="alternateBounds" />
          </mxGeometry>
        </mxCell>
        <mxCell id="_3fMvBpomGZ4TNmyy_1x-205" value="" style="shape=tableRow;horizontal=0;startSize=0;swimlaneHead=0;swimlaneBody=0;fillColor=#eeeeee;collapsible=0;dropTarget=0;points=[[0,0.5],[1,0.5]];portConstraint=eastwest;top=0;left=0;right=0;bottom=0;strokeColor=#36393d;" vertex="1" parent="_3fMvBpomGZ4TNmyy_1x-116">
          <mxGeometry y="180" width="310" height="30" as="geometry" />
        </mxCell>
        <mxCell id="_3fMvBpomGZ4TNmyy_1x-206" value="" style="shape=partialRectangle;connectable=0;fillColor=#eeeeee;top=0;left=0;bottom=0;right=0;editable=1;overflow=hidden;strokeColor=#36393d;" vertex="1" parent="_3fMvBpomGZ4TNmyy_1x-205">
          <mxGeometry width="30" height="30" as="geometry">
            <mxRectangle width="30" height="30" as="alternateBounds" />
          </mxGeometry>
        </mxCell>
        <mxCell id="_3fMvBpomGZ4TNmyy_1x-207" value="NOTE TEXT" style="shape=partialRectangle;connectable=0;fillColor=#eeeeee;top=0;left=0;bottom=0;right=0;align=left;spacingLeft=6;overflow=hidden;strokeColor=#36393d;" vertex="1" parent="_3fMvBpomGZ4TNmyy_1x-205">
          <mxGeometry x="30" width="280" height="30" as="geometry">
            <mxRectangle width="280" height="30" as="alternateBounds" />
          </mxGeometry>
        </mxCell>
        <mxCell id="_3fMvBpomGZ4TNmyy_1x-129" value="" style="shape=tableRow;horizontal=0;startSize=0;swimlaneHead=0;swimlaneBody=0;fillColor=#eeeeee;collapsible=0;dropTarget=0;points=[[0,0.5],[1,0.5]];portConstraint=eastwest;top=0;left=0;right=0;bottom=0;strokeColor=#36393d;fontFamily=Poppins;fontSource=https%3A%2F%2Ffonts.googleapis.com%2Fcss%3Ffamily%3DPoppins;" vertex="1" parent="_3fMvBpomGZ4TNmyy_1x-116">
          <mxGeometry y="210" width="310" height="30" as="geometry" />
        </mxCell>
        <mxCell id="_3fMvBpomGZ4TNmyy_1x-130" value="" style="shape=partialRectangle;connectable=0;fillColor=#eeeeee;top=0;left=0;bottom=0;right=0;editable=1;overflow=hidden;strokeColor=#36393d;fontFamily=Poppins;fontSource=https%3A%2F%2Ffonts.googleapis.com%2Fcss%3Ffamily%3DPoppins;" vertex="1" parent="_3fMvBpomGZ4TNmyy_1x-129">
          <mxGeometry width="30" height="30" as="geometry">
            <mxRectangle width="30" height="30" as="alternateBounds" />
          </mxGeometry>
        </mxCell>
        <mxCell id="_3fMvBpomGZ4TNmyy_1x-131" value="USER_REG VARCHAR(60) NOT NULL" style="shape=partialRectangle;connectable=0;fillColor=#eeeeee;top=0;left=0;bottom=0;right=0;align=left;spacingLeft=6;overflow=hidden;strokeColor=#36393d;fontFamily=Poppins;fontSource=https%3A%2F%2Ffonts.googleapis.com%2Fcss%3Ffamily%3DPoppins;" vertex="1" parent="_3fMvBpomGZ4TNmyy_1x-129">
          <mxGeometry x="30" width="280" height="30" as="geometry">
            <mxRectangle width="280" height="30" as="alternateBounds" />
          </mxGeometry>
        </mxCell>
        <mxCell id="_3fMvBpomGZ4TNmyy_1x-132" value="" style="shape=tableRow;horizontal=0;startSize=0;swimlaneHead=0;swimlaneBody=0;fillColor=#eeeeee;collapsible=0;dropTarget=0;points=[[0,0.5],[1,0.5]];portConstraint=eastwest;top=0;left=0;right=0;bottom=0;strokeColor=#36393d;fontFamily=Poppins;fontSource=https%3A%2F%2Ffonts.googleapis.com%2Fcss%3Ffamily%3DPoppins;" vertex="1" parent="_3fMvBpomGZ4TNmyy_1x-116">
          <mxGeometry y="240" width="310" height="30" as="geometry" />
        </mxCell>
        <mxCell id="_3fMvBpomGZ4TNmyy_1x-133" value="" style="shape=partialRectangle;connectable=0;fillColor=#eeeeee;top=0;left=0;bottom=0;right=0;editable=1;overflow=hidden;fontFamily=Poppins;fontSource=https%3A%2F%2Ffonts.googleapis.com%2Fcss%3Ffamily%3DPoppins;strokeColor=#36393d;" vertex="1" parent="_3fMvBpomGZ4TNmyy_1x-132">
          <mxGeometry width="30" height="30" as="geometry">
            <mxRectangle width="30" height="30" as="alternateBounds" />
          </mxGeometry>
        </mxCell>
        <mxCell id="_3fMvBpomGZ4TNmyy_1x-134" value="DATE_REG DATETIME NOT NULL" style="shape=partialRectangle;connectable=0;fillColor=#eeeeee;top=0;left=0;bottom=0;right=0;align=left;spacingLeft=6;overflow=hidden;fontFamily=Poppins;fontSource=https%3A%2F%2Ffonts.googleapis.com%2Fcss%3Ffamily%3DPoppins;strokeColor=#36393d;" vertex="1" parent="_3fMvBpomGZ4TNmyy_1x-132">
          <mxGeometry x="30" width="280" height="30" as="geometry">
            <mxRectangle width="280" height="30" as="alternateBounds" />
          </mxGeometry>
        </mxCell>
        <mxCell id="_3fMvBpomGZ4TNmyy_1x-135" value="" style="shape=tableRow;horizontal=0;startSize=0;swimlaneHead=0;swimlaneBody=0;fillColor=#eeeeee;collapsible=0;dropTarget=0;points=[[0,0.5],[1,0.5]];portConstraint=eastwest;top=0;left=0;right=0;bottom=0;strokeColor=#36393d;rounded=0;fontFamily=Poppins;fontSource=https%3A%2F%2Ffonts.googleapis.com%2Fcss%3Ffamily%3DPoppins;" vertex="1" parent="_3fMvBpomGZ4TNmyy_1x-116">
          <mxGeometry y="270" width="310" height="30" as="geometry" />
        </mxCell>
        <mxCell id="_3fMvBpomGZ4TNmyy_1x-136" value="" style="shape=partialRectangle;connectable=0;fillColor=#eeeeee;top=0;left=0;bottom=0;right=0;editable=1;overflow=hidden;strokeColor=#36393d;rounded=0;fontFamily=Poppins;fontSource=https%3A%2F%2Ffonts.googleapis.com%2Fcss%3Ffamily%3DPoppins;" vertex="1" parent="_3fMvBpomGZ4TNmyy_1x-135">
          <mxGeometry width="30" height="30" as="geometry">
            <mxRectangle width="30" height="30" as="alternateBounds" />
          </mxGeometry>
        </mxCell>
        <mxCell id="_3fMvBpomGZ4TNmyy_1x-137" value="USER_MOD VARCHAR(60)Â " style="shape=partialRectangle;connectable=0;fillColor=#eeeeee;top=0;left=0;bottom=0;right=0;align=left;spacingLeft=6;overflow=hidden;strokeColor=#36393d;rounded=0;fontFamily=Poppins;fontSource=https%3A%2F%2Ffonts.googleapis.com%2Fcss%3Ffamily%3DPoppins;" vertex="1" parent="_3fMvBpomGZ4TNmyy_1x-135">
          <mxGeometry x="30" width="280" height="30" as="geometry">
            <mxRectangle width="280" height="30" as="alternateBounds" />
          </mxGeometry>
        </mxCell>
        <mxCell id="_3fMvBpomGZ4TNmyy_1x-138" value="" style="shape=tableRow;horizontal=0;startSize=0;swimlaneHead=0;swimlaneBody=0;fillColor=#eeeeee;collapsible=0;dropTarget=0;points=[[0,0.5],[1,0.5]];portConstraint=eastwest;top=0;left=0;right=0;bottom=0;strokeColor=#36393d;rounded=0;fontFamily=Poppins;fontSource=https%3A%2F%2Ffonts.googleapis.com%2Fcss%3Ffamily%3DPoppins;" vertex="1" parent="_3fMvBpomGZ4TNmyy_1x-116">
          <mxGeometry y="300" width="310" height="30" as="geometry" />
        </mxCell>
        <mxCell id="_3fMvBpomGZ4TNmyy_1x-139" value="" style="shape=partialRectangle;connectable=0;fillColor=#eeeeee;top=0;left=0;bottom=0;right=0;fontStyle=0;overflow=hidden;whiteSpace=wrap;html=1;strokeColor=#36393d;rounded=0;fontFamily=Poppins;fontSource=https%3A%2F%2Ffonts.googleapis.com%2Fcss%3Ffamily%3DPoppins;" vertex="1" parent="_3fMvBpomGZ4TNmyy_1x-138">
          <mxGeometry width="30" height="30" as="geometry">
            <mxRectangle width="30" height="30" as="alternateBounds" />
          </mxGeometry>
        </mxCell>
        <mxCell id="_3fMvBpomGZ4TNmyy_1x-140" value="&lt;span style=&quot;font-family: Helvetica; text-wrap-mode: nowrap;&quot;&gt;DATE_MOD DATETIME&amp;nbsp;&lt;/span&gt;" style="shape=partialRectangle;connectable=0;fillColor=#eeeeee;top=0;left=0;bottom=0;right=0;align=left;spacingLeft=6;fontStyle=0;overflow=hidden;whiteSpace=wrap;html=1;strokeColor=#36393d;rounded=0;fontFamily=Poppins;fontSource=https%3A%2F%2Ffonts.googleapis.com%2Fcss%3Ffamily%3DPoppins;" vertex="1" parent="_3fMvBpomGZ4TNmyy_1x-138">
          <mxGeometry x="30" width="280" height="30" as="geometry">
            <mxRectangle width="280" height="30" as="alternateBounds" />
          </mxGeometry>
        </mxCell>
        <mxCell id="_3fMvBpomGZ4TNmyy_1x-141" value="" style="shape=tableRow;horizontal=0;startSize=0;swimlaneHead=0;swimlaneBody=0;fillColor=#eeeeee;collapsible=0;dropTarget=0;points=[[0,0.5],[1,0.5]];portConstraint=eastwest;top=0;left=0;right=0;bottom=0;strokeColor=#36393d;fontFamily=Poppins;fontSource=https%3A%2F%2Ffonts.googleapis.com%2Fcss%3Ffamily%3DPoppins;" vertex="1" parent="_3fMvBpomGZ4TNmyy_1x-116">
          <mxGeometry y="330" width="310" height="30" as="geometry" />
        </mxCell>
        <mxCell id="_3fMvBpomGZ4TNmyy_1x-142" value="FK" style="shape=partialRectangle;connectable=0;fillColor=#eeeeee;top=0;left=0;bottom=0;right=0;fontStyle=0;overflow=hidden;whiteSpace=wrap;html=1;strokeColor=#36393d;fontFamily=Poppins;fontSource=https%3A%2F%2Ffonts.googleapis.com%2Fcss%3Ffamily%3DPoppins;" vertex="1" parent="_3fMvBpomGZ4TNmyy_1x-141">
          <mxGeometry width="30" height="30" as="geometry">
            <mxRectangle width="30" height="30" as="alternateBounds" />
          </mxGeometry>
        </mxCell>
        <mxCell id="_3fMvBpomGZ4TNmyy_1x-143" value="ID_CONTROL INT NOT NULL" style="shape=partialRectangle;connectable=0;fillColor=#eeeeee;top=0;left=0;bottom=0;right=0;align=left;spacingLeft=6;fontStyle=0;overflow=hidden;whiteSpace=wrap;html=1;strokeColor=#36393d;fontFamily=Poppins;fontSource=https%3A%2F%2Ffonts.googleapis.com%2Fcss%3Ffamily%3DPoppins;" vertex="1" parent="_3fMvBpomGZ4TNmyy_1x-141">
          <mxGeometry x="30" width="280" height="30" as="geometry">
            <mxRectangle width="280" height="30" as="alternateBounds" />
          </mxGeometry>
        </mxCell>
        <mxCell id="_3fMvBpomGZ4TNmyy_1x-145" value="STOPS" style="shape=table;startSize=30;container=1;collapsible=1;childLayout=tableLayout;fixedRows=1;rowLines=0;fontStyle=1;align=center;resizeLast=1;html=1;fillColor=#07747B;strokeColor=#432D57;fontColor=#ffffff;rounded=0;fontFamily=Poppins;fontSource=https%3A%2F%2Ffonts.googleapis.com%2Fcss%3Ffamily%3DPoppins;fontSize=14;" vertex="1" parent="1">
          <mxGeometry x="1940" y="456" width="270" height="330" as="geometry" />
        </mxCell>
        <mxCell id="_3fMvBpomGZ4TNmyy_1x-146" value="" style="shape=tableRow;horizontal=0;startSize=0;swimlaneHead=0;swimlaneBody=0;fillColor=#eeeeee;collapsible=0;dropTarget=0;points=[[0,0.5],[1,0.5]];portConstraint=eastwest;top=0;left=0;right=0;bottom=1;strokeColor=#36393d;rounded=0;fontFamily=Poppins;fontSource=https%3A%2F%2Ffonts.googleapis.com%2Fcss%3Ffamily%3DPoppins;" vertex="1" parent="_3fMvBpomGZ4TNmyy_1x-145">
          <mxGeometry y="30" width="270" height="30" as="geometry" />
        </mxCell>
        <mxCell id="_3fMvBpomGZ4TNmyy_1x-147" value="PK" style="shape=partialRectangle;connectable=0;fillColor=#eeeeee;top=0;left=0;bottom=0;right=0;fontStyle=1;overflow=hidden;whiteSpace=wrap;html=1;strokeColor=#36393d;rounded=0;fontFamily=Poppins;fontSource=https%3A%2F%2Ffonts.googleapis.com%2Fcss%3Ffamily%3DPoppins;" vertex="1" parent="_3fMvBpomGZ4TNmyy_1x-146">
          <mxGeometry width="25" height="30" as="geometry">
            <mxRectangle width="25" height="30" as="alternateBounds" />
          </mxGeometry>
        </mxCell>
        <mxCell id="_3fMvBpomGZ4TNmyy_1x-148" value="ID INT AUTO_INCREMENT NOT NULL" style="shape=partialRectangle;connectable=0;fillColor=#eeeeee;top=0;left=0;bottom=0;right=0;align=left;spacingLeft=6;fontStyle=5;overflow=hidden;whiteSpace=wrap;html=1;strokeColor=#36393d;rounded=0;fontFamily=Poppins;fontSource=https%3A%2F%2Ffonts.googleapis.com%2Fcss%3Ffamily%3DPoppins;" vertex="1" parent="_3fMvBpomGZ4TNmyy_1x-146">
          <mxGeometry x="25" width="245" height="30" as="geometry">
            <mxRectangle width="245" height="30" as="alternateBounds" />
          </mxGeometry>
        </mxCell>
        <mxCell id="_3fMvBpomGZ4TNmyy_1x-149" value="" style="shape=tableRow;horizontal=0;startSize=0;swimlaneHead=0;swimlaneBody=0;fillColor=#eeeeee;collapsible=0;dropTarget=0;points=[[0,0.5],[1,0.5]];portConstraint=eastwest;top=0;left=0;right=0;bottom=0;strokeColor=#36393d;rounded=0;fontFamily=Poppins;fontSource=https%3A%2F%2Ffonts.googleapis.com%2Fcss%3Ffamily%3DPoppins;" vertex="1" parent="_3fMvBpomGZ4TNmyy_1x-145">
          <mxGeometry y="60" width="270" height="30" as="geometry" />
        </mxCell>
        <mxCell id="_3fMvBpomGZ4TNmyy_1x-150" value="" style="shape=partialRectangle;connectable=0;fillColor=#eeeeee;top=0;left=0;bottom=0;right=0;editable=1;overflow=hidden;whiteSpace=wrap;html=1;strokeColor=#36393d;rounded=0;fontFamily=Poppins;fontSource=https%3A%2F%2Ffonts.googleapis.com%2Fcss%3Ffamily%3DPoppins;" vertex="1" parent="_3fMvBpomGZ4TNmyy_1x-149">
          <mxGeometry width="25" height="30" as="geometry">
            <mxRectangle width="25" height="30" as="alternateBounds" />
          </mxGeometry>
        </mxCell>
        <mxCell id="_3fMvBpomGZ4TNmyy_1x-151" value="&lt;span style=&quot;text-wrap-mode: nowrap;&quot;&gt;NAME VARCHAR(100) NOT NULL UNIQUE&lt;/span&gt;" style="shape=partialRectangle;connectable=0;fillColor=#eeeeee;top=0;left=0;bottom=0;right=0;align=left;spacingLeft=6;overflow=hidden;whiteSpace=wrap;html=1;strokeColor=#36393d;rounded=0;fontFamily=Poppins;fontSource=https%3A%2F%2Ffonts.googleapis.com%2Fcss%3Ffamily%3DPoppins;" vertex="1" parent="_3fMvBpomGZ4TNmyy_1x-149">
          <mxGeometry x="25" width="245" height="30" as="geometry">
            <mxRectangle width="245" height="30" as="alternateBounds" />
          </mxGeometry>
        </mxCell>
        <mxCell id="_3fMvBpomGZ4TNmyy_1x-152" value="" style="shape=tableRow;horizontal=0;startSize=0;swimlaneHead=0;swimlaneBody=0;fillColor=#eeeeee;collapsible=0;dropTarget=0;points=[[0,0.5],[1,0.5]];portConstraint=eastwest;top=0;left=0;right=0;bottom=0;strokeColor=#36393d;rounded=0;fontFamily=Poppins;fontSource=https%3A%2F%2Ffonts.googleapis.com%2Fcss%3Ffamily%3DPoppins;" vertex="1" parent="_3fMvBpomGZ4TNmyy_1x-145">
          <mxGeometry y="90" width="270" height="30" as="geometry" />
        </mxCell>
        <mxCell id="_3fMvBpomGZ4TNmyy_1x-153" value="" style="shape=partialRectangle;connectable=0;fillColor=#eeeeee;top=0;left=0;bottom=0;right=0;editable=1;overflow=hidden;strokeColor=#36393d;rounded=0;fontFamily=Poppins;fontSource=https%3A%2F%2Ffonts.googleapis.com%2Fcss%3Ffamily%3DPoppins;" vertex="1" parent="_3fMvBpomGZ4TNmyy_1x-152">
          <mxGeometry width="25" height="30" as="geometry">
            <mxRectangle width="25" height="30" as="alternateBounds" />
          </mxGeometry>
        </mxCell>
        <mxCell id="_3fMvBpomGZ4TNmyy_1x-154" value="LATITUDEÂ DECIMAL(18, 15) NOT NULL" style="shape=partialRectangle;connectable=0;fillColor=#eeeeee;top=0;left=0;bottom=0;right=0;align=left;spacingLeft=6;overflow=hidden;strokeColor=#36393d;rounded=0;fontFamily=Poppins;fontSource=https%3A%2F%2Ffonts.googleapis.com%2Fcss%3Ffamily%3DPoppins;" vertex="1" parent="_3fMvBpomGZ4TNmyy_1x-152">
          <mxGeometry x="25" width="245" height="30" as="geometry">
            <mxRectangle width="245" height="30" as="alternateBounds" />
          </mxGeometry>
        </mxCell>
        <mxCell id="_3fMvBpomGZ4TNmyy_1x-189" value="" style="shape=tableRow;horizontal=0;startSize=0;swimlaneHead=0;swimlaneBody=0;fillColor=#eeeeee;collapsible=0;dropTarget=0;points=[[0,0.5],[1,0.5]];portConstraint=eastwest;top=0;left=0;right=0;bottom=0;strokeColor=#36393d;" vertex="1" parent="_3fMvBpomGZ4TNmyy_1x-145">
          <mxGeometry y="120" width="270" height="30" as="geometry" />
        </mxCell>
        <mxCell id="_3fMvBpomGZ4TNmyy_1x-190" value="" style="shape=partialRectangle;connectable=0;fillColor=#eeeeee;top=0;left=0;bottom=0;right=0;editable=1;overflow=hidden;strokeColor=#36393d;" vertex="1" parent="_3fMvBpomGZ4TNmyy_1x-189">
          <mxGeometry width="25" height="30" as="geometry">
            <mxRectangle width="25" height="30" as="alternateBounds" />
          </mxGeometry>
        </mxCell>
        <mxCell id="_3fMvBpomGZ4TNmyy_1x-191" value="LONGITUDE DECIMAL(18, 15) NOT NULL" style="shape=partialRectangle;connectable=0;fillColor=#eeeeee;top=0;left=0;bottom=0;right=0;align=left;spacingLeft=6;overflow=hidden;strokeColor=#36393d;" vertex="1" parent="_3fMvBpomGZ4TNmyy_1x-189">
          <mxGeometry x="25" width="245" height="30" as="geometry">
            <mxRectangle width="245" height="30" as="alternateBounds" />
          </mxGeometry>
        </mxCell>
        <mxCell id="_3fMvBpomGZ4TNmyy_1x-198" value="" style="shape=tableRow;horizontal=0;startSize=0;swimlaneHead=0;swimlaneBody=0;fillColor=#eeeeee;collapsible=0;dropTarget=0;points=[[0,0.5],[1,0.5]];portConstraint=eastwest;top=0;left=0;right=0;bottom=0;strokeColor=#36393d;" vertex="1" parent="_3fMvBpomGZ4TNmyy_1x-145">
          <mxGeometry y="150" width="270" height="30" as="geometry" />
        </mxCell>
        <mxCell id="_3fMvBpomGZ4TNmyy_1x-199" value="" style="shape=partialRectangle;connectable=0;fillColor=#eeeeee;top=0;left=0;bottom=0;right=0;editable=1;overflow=hidden;strokeColor=#36393d;" vertex="1" parent="_3fMvBpomGZ4TNmyy_1x-198">
          <mxGeometry width="25" height="30" as="geometry">
            <mxRectangle width="25" height="30" as="alternateBounds" />
          </mxGeometry>
        </mxCell>
        <mxCell id="_3fMvBpomGZ4TNmyy_1x-200" value="NOTE TEXT" style="shape=partialRectangle;connectable=0;fillColor=#eeeeee;top=0;left=0;bottom=0;right=0;align=left;spacingLeft=6;overflow=hidden;strokeColor=#36393d;" vertex="1" parent="_3fMvBpomGZ4TNmyy_1x-198">
          <mxGeometry x="25" width="245" height="30" as="geometry">
            <mxRectangle width="245" height="30" as="alternateBounds" />
          </mxGeometry>
        </mxCell>
        <mxCell id="_3fMvBpomGZ4TNmyy_1x-155" value="" style="shape=tableRow;horizontal=0;startSize=0;swimlaneHead=0;swimlaneBody=0;fillColor=#eeeeee;collapsible=0;dropTarget=0;points=[[0,0.5],[1,0.5]];portConstraint=eastwest;top=0;left=0;right=0;bottom=0;strokeColor=#36393d;fontFamily=Poppins;fontSource=https%3A%2F%2Ffonts.googleapis.com%2Fcss%3Ffamily%3DPoppins;" vertex="1" parent="_3fMvBpomGZ4TNmyy_1x-145">
          <mxGeometry y="180" width="270" height="30" as="geometry" />
        </mxCell>
        <mxCell id="_3fMvBpomGZ4TNmyy_1x-156" value="" style="shape=partialRectangle;connectable=0;fillColor=#eeeeee;top=0;left=0;bottom=0;right=0;editable=1;overflow=hidden;strokeColor=#36393d;fontFamily=Poppins;fontSource=https%3A%2F%2Ffonts.googleapis.com%2Fcss%3Ffamily%3DPoppins;" vertex="1" parent="_3fMvBpomGZ4TNmyy_1x-155">
          <mxGeometry width="25" height="30" as="geometry">
            <mxRectangle width="25" height="30" as="alternateBounds" />
          </mxGeometry>
        </mxCell>
        <mxCell id="_3fMvBpomGZ4TNmyy_1x-157" value="USER_REG VARCHAR(60) NOT NULL" style="shape=partialRectangle;connectable=0;fillColor=#eeeeee;top=0;left=0;bottom=0;right=0;align=left;spacingLeft=6;overflow=hidden;strokeColor=#36393d;fontFamily=Poppins;fontSource=https%3A%2F%2Ffonts.googleapis.com%2Fcss%3Ffamily%3DPoppins;" vertex="1" parent="_3fMvBpomGZ4TNmyy_1x-155">
          <mxGeometry x="25" width="245" height="30" as="geometry">
            <mxRectangle width="245" height="30" as="alternateBounds" />
          </mxGeometry>
        </mxCell>
        <mxCell id="_3fMvBpomGZ4TNmyy_1x-158" value="" style="shape=tableRow;horizontal=0;startSize=0;swimlaneHead=0;swimlaneBody=0;fillColor=#eeeeee;collapsible=0;dropTarget=0;points=[[0,0.5],[1,0.5]];portConstraint=eastwest;top=0;left=0;right=0;bottom=0;strokeColor=#36393d;rounded=0;fontFamily=Poppins;fontSource=https%3A%2F%2Ffonts.googleapis.com%2Fcss%3Ffamily%3DPoppins;" vertex="1" parent="_3fMvBpomGZ4TNmyy_1x-145">
          <mxGeometry y="210" width="270" height="30" as="geometry" />
        </mxCell>
        <mxCell id="_3fMvBpomGZ4TNmyy_1x-159" value="" style="shape=partialRectangle;connectable=0;fillColor=#eeeeee;top=0;left=0;bottom=0;right=0;editable=1;overflow=hidden;strokeColor=#36393d;rounded=0;fontFamily=Poppins;fontSource=https%3A%2F%2Ffonts.googleapis.com%2Fcss%3Ffamily%3DPoppins;" vertex="1" parent="_3fMvBpomGZ4TNmyy_1x-158">
          <mxGeometry width="25" height="30" as="geometry">
            <mxRectangle width="25" height="30" as="alternateBounds" />
          </mxGeometry>
        </mxCell>
        <mxCell id="_3fMvBpomGZ4TNmyy_1x-160" value="DATE_REG DATETIME NOT NULL" style="shape=partialRectangle;connectable=0;fillColor=#eeeeee;top=0;left=0;bottom=0;right=0;align=left;spacingLeft=6;overflow=hidden;strokeColor=#36393d;rounded=0;fontFamily=Poppins;fontSource=https%3A%2F%2Ffonts.googleapis.com%2Fcss%3Ffamily%3DPoppins;" vertex="1" parent="_3fMvBpomGZ4TNmyy_1x-158">
          <mxGeometry x="25" width="245" height="30" as="geometry">
            <mxRectangle width="245" height="30" as="alternateBounds" />
          </mxGeometry>
        </mxCell>
        <mxCell id="_3fMvBpomGZ4TNmyy_1x-192" value="" style="shape=tableRow;horizontal=0;startSize=0;swimlaneHead=0;swimlaneBody=0;fillColor=#eeeeee;collapsible=0;dropTarget=0;points=[[0,0.5],[1,0.5]];portConstraint=eastwest;top=0;left=0;right=0;bottom=0;strokeColor=#36393d;" vertex="1" parent="_3fMvBpomGZ4TNmyy_1x-145">
          <mxGeometry y="240" width="270" height="30" as="geometry" />
        </mxCell>
        <mxCell id="_3fMvBpomGZ4TNmyy_1x-193" value="" style="shape=partialRectangle;connectable=0;fillColor=#eeeeee;top=0;left=0;bottom=0;right=0;editable=1;overflow=hidden;strokeColor=#36393d;" vertex="1" parent="_3fMvBpomGZ4TNmyy_1x-192">
          <mxGeometry width="25" height="30" as="geometry">
            <mxRectangle width="25" height="30" as="alternateBounds" />
          </mxGeometry>
        </mxCell>
        <mxCell id="_3fMvBpomGZ4TNmyy_1x-194" value="USER_MOD VARCHAR(60)Â " style="shape=partialRectangle;connectable=0;fillColor=#eeeeee;top=0;left=0;bottom=0;right=0;align=left;spacingLeft=6;overflow=hidden;strokeColor=#36393d;" vertex="1" parent="_3fMvBpomGZ4TNmyy_1x-192">
          <mxGeometry x="25" width="245" height="30" as="geometry">
            <mxRectangle width="245" height="30" as="alternateBounds" />
          </mxGeometry>
        </mxCell>
        <mxCell id="_3fMvBpomGZ4TNmyy_1x-195" value="" style="shape=tableRow;horizontal=0;startSize=0;swimlaneHead=0;swimlaneBody=0;fillColor=#eeeeee;collapsible=0;dropTarget=0;points=[[0,0.5],[1,0.5]];portConstraint=eastwest;top=0;left=0;right=0;bottom=0;strokeColor=#36393d;" vertex="1" parent="_3fMvBpomGZ4TNmyy_1x-145">
          <mxGeometry y="270" width="270" height="30" as="geometry" />
        </mxCell>
        <mxCell id="_3fMvBpomGZ4TNmyy_1x-196" value="" style="shape=partialRectangle;connectable=0;fillColor=#eeeeee;top=0;left=0;bottom=0;right=0;editable=1;overflow=hidden;strokeColor=#36393d;" vertex="1" parent="_3fMvBpomGZ4TNmyy_1x-195">
          <mxGeometry width="25" height="30" as="geometry">
            <mxRectangle width="25" height="30" as="alternateBounds" />
          </mxGeometry>
        </mxCell>
        <mxCell id="_3fMvBpomGZ4TNmyy_1x-197" value="DATE_MOD DATETIMEÂ " style="shape=partialRectangle;connectable=0;fillColor=#eeeeee;top=0;left=0;bottom=0;right=0;align=left;spacingLeft=6;overflow=hidden;strokeColor=#36393d;" vertex="1" parent="_3fMvBpomGZ4TNmyy_1x-195">
          <mxGeometry x="25" width="245" height="30" as="geometry">
            <mxRectangle width="245" height="30" as="alternateBounds" />
          </mxGeometry>
        </mxCell>
        <mxCell id="_3fMvBpomGZ4TNmyy_1x-161" value="" style="shape=tableRow;horizontal=0;startSize=0;swimlaneHead=0;swimlaneBody=0;fillColor=#eeeeee;collapsible=0;dropTarget=0;points=[[0,0.5],[1,0.5]];portConstraint=eastwest;top=0;left=0;right=0;bottom=0;strokeColor=#36393d;rounded=0;fontFamily=Poppins;fontSource=https%3A%2F%2Ffonts.googleapis.com%2Fcss%3Ffamily%3DPoppins;" vertex="1" parent="_3fMvBpomGZ4TNmyy_1x-145">
          <mxGeometry y="300" width="270" height="30" as="geometry" />
        </mxCell>
        <mxCell id="_3fMvBpomGZ4TNmyy_1x-162" value="FK" style="shape=partialRectangle;connectable=0;fillColor=#eeeeee;top=0;left=0;bottom=0;right=0;fontStyle=0;overflow=hidden;whiteSpace=wrap;html=1;strokeColor=#36393d;rounded=0;fontFamily=Poppins;fontSource=https%3A%2F%2Ffonts.googleapis.com%2Fcss%3Ffamily%3DPoppins;" vertex="1" parent="_3fMvBpomGZ4TNmyy_1x-161">
          <mxGeometry width="25" height="30" as="geometry">
            <mxRectangle width="25" height="30" as="alternateBounds" />
          </mxGeometry>
        </mxCell>
        <mxCell id="_3fMvBpomGZ4TNmyy_1x-163" value="ID_ROUTE&amp;nbsp;INT NOT NULL" style="shape=partialRectangle;connectable=0;fillColor=#eeeeee;top=0;left=0;bottom=0;right=0;align=left;spacingLeft=6;fontStyle=0;overflow=hidden;whiteSpace=wrap;html=1;strokeColor=#36393d;rounded=0;fontFamily=Poppins;fontSource=https%3A%2F%2Ffonts.googleapis.com%2Fcss%3Ffamily%3DPoppins;" vertex="1" parent="_3fMvBpomGZ4TNmyy_1x-161">
          <mxGeometry x="25" width="245" height="30" as="geometry">
            <mxRectangle width="245" height="30" as="alternateBounds" />
          </mxGeometry>
        </mxCell>
        <mxCell id="_3fMvBpomGZ4TNmyy_1x-204" value="" style="edgeStyle=entityRelationEdgeStyle;fontSize=12;html=1;endArrow=ERoneToMany;rounded=0;exitX=0;exitY=0.5;exitDx=0;exitDy=0;" edge="1" parent="1" source="_3fMvBpomGZ4TNmyy_1x-161" target="_3fMvBpomGZ4TNmyy_1x-117">
          <mxGeometry width="100" height="100" relative="1" as="geometry">
            <mxPoint x="1690" y="850" as="sourcePoint" />
            <mxPoint x="1790" y="750" as="targetPoint" />
          </mxGeometry>
        </mxCell>
      </root>
    </mxGraphModel>
  </diagram>
</mxfile>
